{
copyright = "Copyright (c) 2017 by Vladimir Nikolic. All rights reserved.";
designer = "Vladimir Nikolic";
familyName = Consequences;
customParameters = (
{
name = glyphOrder;
value = (
.notdef,
NULL,
CR,
space,
F,
G,
H,
I,
J,
K,
L,
M,
N,
O,
P,
Q,
R,
S,
T,
U,
V,
W,
X,
Y,
Z,
nine,
eight,
seven,
six,
five,
four,
three,
two,
one,
zero,
space.001,
agrave,
E,
a,
c,
d,
e,
f,
g,
h,
i,
j,
k,
l,
m,
n,
o,
p,
q,
r,
s,
t,
u,
v,
w,
x,
y,
z,
B,
b,
exclam,
question,
parenleft,
parenright,
quotedbl,
comma,
quotesingle,
period,
colon,
semicolon,
equal,
slash,
hyphen,
underscore,
plus,
C,
D,
A
);
},
{
name = trademark;
value = "Consequences is a trademark of Vladimir Nikolic.";
}
);
fontMaster = (
{
ascender = 750;
capHeight = 700;
customParameters = (
{
name = typoAscender;
value = 750;
},
{
name = typoDescender;
value = -250;
},
{
name = typoLineGap;
value = 0;
},
{
name = winAscent;
value = 832;
},
{
name = winDescent;
value = 133;
},
{
name = underlineThickness;
value = 50;
},
{
name = underlinePosition;
value = -75;
},
{
name = strikeoutPosition;
value = 250;
},
{
name = strikeoutSize;
value = 50;
},
{
name = subscriptXOffset;
value = 0;
},
{
name = subscriptXSize;
value = 700;
},
{
name = subscriptYOffset;
value = 140;
},
{
name = subscriptYSize;
value = 650;
},
{
name = superscriptXOffset;
value = 0;
},
{
name = superscriptXSize;
value = 700;
},
{
name = superscriptYOffset;
value = 477;
},
{
name = superscriptYSize;
value = 650;
},
{
name = hheaAscender;
value = 750;
},
{
name = hheaDescender;
value = -250;
},
{
name = hheaLineGap;
value = 0;
}
);
descender = -250;
guideLines = (
{
position = "{0, 250}";
}
);
id = "18784422-F192-4997-B360-A1CB97F2F6DC";
weight = Regular;
widthValue = 100;
weightValue = 100;
xHeight = 500;
}
);
glyphs = (
{
glyphname = F;
layers = (
{
layerId = "18784422-F192-4997-B360-A1CB97F2F6DC";
paths = (
{
nodes = (
"360 412 LINE",
"565 412 LINE",
"565 330 LINE",
"360 330 LINE",
"360 125 LINE",
"360 2 LINE",
"33 2 LINE",
"33 576 LINE",
"33 658 LINE",
"33 699 LINE",
"360 699 LINE",
"606 699 LINE",
"606 576 LINE",
"360 576 LINE"
);
}
);
width = 631;
}
);
unicode = 0046;
},
{
glyphname = G;
layers = (
{
layerId = "18784422-F192-4997-B360-A1CB97F2F6DC";
paths = (
{
nodes = (
"716 529 LINE",
"718 510 LINE",
"719 492 LINE",
"596 492 LINE",
"596 500 LINE",
"595 507 LINE",
"593 514 LINE",
"590 522 LINE",
"587 529 LINE",
"583 537 LINE",
"578 544 LINE",
"572 550 LINE",
"566 556 LINE",
"559 561 LINE",
"552 565 LINE",
"544 568 LINE",
"537 571 LINE",
"529 573 LINE",
"521 573 LINE",
"391 574 LINE",
"391 123 LINE",
"521 124 LINE",
"529 125 LINE",
"537 126 LINE",
"544 129 LINE",
"552 132 LINE",
"559 137 LINE",
"566 142 LINE",
"572 147 LINE",
"578 154 LINE",
"583 161 LINE",
"587 167 LINE",
"590 175 LINE",
"593 183 LINE",
"595 190 LINE",
"596 198 LINE",
"596 205 LINE",
"473 205 LINE",
"473 328 LINE",
"719 328 LINE",
"719 205 LINE",
"718 187 LINE",
"716 168 LINE",
"711 149 LINE",
"705 130 LINE",
"696 111 LINE",
"685 93 LINE",
"673 76 LINE",
"659 61 LINE",
"643 46 LINE",
"626 34 LINE",
"608 23 LINE",
"590 15 LINE",
"571 9 LINE",
"551 4 LINE",
"532 1 LINE",
"514 0 LINE",
"209 1 LINE",
"190 4 LINE",
"171 9 LINE",
"152 15 LINE",
"133 23 LINE",
"115 34 LINE",
"98 46 LINE",
"82 61 LINE",
"68 76 LINE",
"56 93 LINE",
"45 111 LINE",
"37 130 LINE",
"30 149 LINE",
"26 168 LINE",
"24 187 LINE",
"22 205 LINE",
"22 410 LINE",
"22 492 LINE",
"24 510 LINE",
"26 529 LINE",
"30 548 LINE",
"37 568 LINE",
"45 586 LINE",
"56 604 LINE",
"68 621 LINE",
"82 637 LINE",
"98 651 LINE",
"115 664 LINE",
"133 674 LINE",
"152 683 LINE",
"171 689 LINE",
"190 693 LINE",
"209 696 LINE",
"514 697 LINE",
"532 696 LINE",
"551 693 LINE",
"571 689 LINE",
"590 683 LINE",
"608 674 LINE",
"626 664 LINE",
"643 651 LINE",
"659 637 LINE",
"673 621 LINE",
"685 604 LINE",
"696 586 LINE",
"705 568 LINE",
"711 548 LINE"
);
}
);
width = 744;
}
);
unicode = 0047;
},
{
glyphname = H;
layers = (
{
layerId = "18784422-F192-4997-B360-A1CB97F2F6DC";
paths = (
{
nodes = (
"636 410 LINE",
"636 697 LINE",
"759 697 LINE",
"759 0 LINE",
"636 0 LINE",
"636 232 LINE",
"636 328 LINE",
"390 328 LINE",
"390 0 LINE",
"21 0 LINE",
"21 472 LINE",
"21 697 LINE",
"390 697 LINE",
"390 464 LINE",
"390 410 LINE"
);
}
);
width = 779;
}
);
unicode = 0048;
},
{
glyphname = I;
layers = (
{
layerId = "18784422-F192-4997-B360-A1CB97F2F6DC";
paths = (
{
nodes = (
"356 574 LINE",
"356 1 LINE",
"29 1 LINE",
"29 574 LINE",
"29 656 LINE",
"29 697 LINE",
"356 697 LINE"
);
}
);
width = 383;
}
);
unicode = 0049;
},
{
glyphname = J;
layers = (
{
layerId = "18784422-F192-4997-B360-A1CB97F2F6DC";
paths = (
{
nodes = (
"469 574 LINE",
"469 205 LINE",
"468 187 LINE",
"465 167 LINE",
"461 148 LINE",
"454 129 LINE",
"446 111 LINE",
"435 93 LINE",
"423 76 LINE",
"409 60 LINE",
"393 46 LINE",
"376 33 LINE",
"358 23 LINE",
"339 14 LINE",
"320 8 LINE",
"301 3 LINE",
"282 1 LINE",
"264 0 LINE",
"141 0 LINE",
"18 0 LINE",
"18 123 LINE",
"141 123 LINE",
"141 574 LINE",
"141 656 LINE",
"141 697 LINE",
"469 697 LINE"
);
}
);
width = 491;
}
);
unicode = 004A;
},
{
glyphname = K;
layers = (
{
layerId = "18784422-F192-4997-B360-A1CB97F2F6DC";
paths = (
{
nodes = (
"483 378 LINE",
"757 1 LINE",
"470 1 LINE",
"468 4 LINE",
"388 110 LINE",
"388 1 LINE",
"19 1 LINE",
"19 698 LINE",
"388 698 LINE",
"388 411 LINE",
"421 457 LINE",
"593 698 LINE",
"716 698 LINE"
);
}
);
width = 778;
}
);
unicode = 004B;
},
{
glyphname = L;
layers = (
{
layerId = "18784422-F192-4997-B360-A1CB97F2F6DC";
paths = (
{
nodes = (
"599 124 LINE",
"599 1 LINE",
"190 1 LINE",
"26 1 LINE",
"26 411 LINE",
"26 657 LINE",
"26 698 LINE",
"354 698 LINE",
"354 411 LINE",
"354 124 LINE"
);
}
);
width = 626;
}
);
unicode = 004C;
},
{
glyphname = M;
layers = (
{
layerId = "18784422-F192-4997-B360-A1CB97F2F6DC";
paths = (
{
nodes = (
"1012 697 LINE",
"1012 1 LINE",
"807 1 LINE",
"684 1 LINE",
"684 233 LINE",
"684 279 LINE",
"602 1 LINE",
"479 1 LINE",
"397 279 LINE",
"397 1 LINE",
"29 1 LINE",
"29 697 LINE",
"397 697 LINE",
"541 210 LINE",
"684 697 LINE",
"807 697 LINE"
);
}
);
width = 1043;
}
);
unicode = 004D;
},
{
glyphname = N;
layers = (
{
layerId = "18784422-F192-4997-B360-A1CB97F2F6DC";
paths = (
{
nodes = (
"395 697 LINE",
"641 232 LINE",
"641 472 LINE",
"641 697 LINE",
"763 697 LINE",
"763 0 LINE",
"641 0 LINE",
"395 464 LINE",
"395 0 LINE",
"26 0 LINE",
"26 472 LINE",
"26 697 LINE"
);
}
);
width = 794;
}
);
unicode = 004E;
},
{
glyphname = O;
layers = (
{
layerId = "18784422-F192-4997-B360-A1CB97F2F6DC";
paths = (
{
nodes = (
"572 689 LINE",
"591 683 LINE",
"610 674 LINE",
"628 664 LINE",
"645 652 LINE",
"661 637 LINE",
"675 622 LINE",
"687 605 LINE",
"698 587 LINE",
"706 568 LINE",
"713 549 LINE",
"717 530 LINE",
"720 511 LINE",
"721 493 LINE",
"720 187 LINE",
"717 168 LINE",
"713 149 LINE",
"706 130 LINE",
"698 112 LINE",
"687 94 LINE",
"675 77 LINE",
"661 61 LINE",
"645 47 LINE",
"628 34 LINE",
"610 24 LINE",
"591 15 LINE",
"572 9 LINE",
"553 4 LINE",
"534 2 LINE",
"516 1 LINE",
"211 2 LINE",
"192 4 LINE",
"173 9 LINE",
"154 15 LINE",
"135 24 LINE",
"117 34 LINE",
"100 47 LINE",
"84 61 LINE",
"70 77 LINE",
"57 94 LINE",
"47 112 LINE",
"39 130 LINE",
"32 149 LINE",
"28 168 LINE",
"25 187 LINE",
"24 206 LINE",
"24 410 LINE",
"25 511 LINE",
"28 530 LINE",
"32 549 LINE",
"39 568 LINE",
"47 587 LINE",
"57 605 LINE",
"70 622 LINE",
"84 637 LINE",
"100 652 LINE",
"117 664 LINE",
"135 674 LINE",
"154 683 LINE",
"173 689 LINE",
"192 694 LINE",
"211 697 LINE",
"516 697 LINE",
"534 697 LINE",
"553 694 LINE"
);
},
{
nodes = (
"598 493 LINE",
"597 500 LINE",
"596 507 LINE",
"595 515 LINE",
"592 523 LINE",
"589 530 LINE",
"584 537 LINE",
"580 544 LINE",
"574 551 LINE",
"567 556 LINE",
"560 561 LINE",
"553 565 LINE",
"546 569 LINE",
"538 571 LINE",
"531 573 LINE",
"523 574 LINE",
"393 574 LINE",
"393 124 LINE",
"523 124 LINE",
"531 125 LINE",
"538 127 LINE",
"546 129 LINE",
"553 133 LINE",
"560 137 LINE",
"567 142 LINE",
"574 148 LINE",
"580 154 LINE",
"584 161 LINE",
"589 168 LINE",
"592 176 LINE",
"595 183 LINE",
"596 191 LINE",
"597 198 LINE"
);
}
);
width = 744;
}
);
unicode = 004F;
},
{
glyphname = P;
layers = (
{
layerId = "18784422-F192-4997-B360-A1CB97F2F6DC";
paths = (
{
nodes = (
"468 293 LINE",
"449 291 LINE",
"431 290 LINE",
"390 290 LINE",
"390 167 LINE",
"390 3 LINE",
"226 3 LINE",
"62 3 LINE",
"21 3 LINE",
"21 699 LINE",
"431 699 LINE",
"449 699 LINE",
"468 696 LINE",
"487 691 LINE",
"506 685 LINE",
"525 676 LINE",
"543 666 LINE",
"560 654 LINE",
"576 639 LINE",
"590 624 LINE",
"603 607 LINE",
"613 589 LINE",
"622 570 LINE",
"628 551 LINE",
"632 532 LINE",
"635 513 LINE",
"636 495 LINE",
"635 471 LINE",
"632 457 LINE",
"632 455 LINE",
"628 440 LINE",
"628 438 LINE",
"626 434 LINE",
"622 421 LINE",
"622 419 LINE",
"613 401 LINE",
"608 393 LINE",
"600 378 LINE",
"596 374 LINE",
"584 358 LINE",
"580 354 LINE",
"564 339 LINE",
"560 336 LINE",
"541 322 LINE",
"525 312 LINE",
"506 304 LINE",
"487 297 LINE"
);
},
{
nodes = (
"513 495 LINE",
"512 502 LINE",
"512 509 LINE",
"510 517 LINE",
"507 525 LINE",
"504 532 LINE",
"500 539 LINE",
"495 546 LINE",
"489 553 LINE",
"483 558 LINE",
"476 563 LINE",
"468 567 LINE",
"461 571 LINE",
"454 573 LINE",
"446 575 LINE",
"439 576 LINE",
"431 576 LINE",
"390 576 LINE",
"390 412 LINE",
"431 412 LINE",
"439 413 LINE",
"446 414 LINE",
"454 416 LINE",
"461 418 LINE",
"468 422 LINE",
"476 426 LINE",
"483 431 LINE",
"489 437 LINE",
"495 443 LINE",
"500 450 LINE",
"504 457 LINE",
"507 464 LINE",
"510 472 LINE",
"512 480 LINE",
"512 487 LINE"
);
}
);
width = 660;
}
);
unicode = 0050;
},
{
glyphname = Q;
layers = (
{
layerId = "18784422-F192-4997-B360-A1CB97F2F6DC";
paths = (
{
nodes = (
"747 0 LINE",
"602 0 LINE",
"578 23 LINE",
"438 163 LINE",
"520 246 LINE",
"582 184 LINE"
);
},
{
nodes = (
"723 180 LINE",
"719 156 LINE",
"710 127 LINE",
"694 102 LINE",
"602 204 LINE",
"602 499 LINE",
"601 506 LINE",
"599 514 LINE",
"596 521 LINE",
"593 529 LINE",
"589 536 LINE",
"583 543 LINE",
"578 549 LINE",
"572 555 LINE",
"565 560 LINE",
"558 564 LINE",
"550 568 LINE",
"542 570 LINE",
"535 572 LINE",
"527 573 LINE",
"397 573 LINE",
"397 122 LINE",
"438 122 LINE",
"558 3 LINE",
"538 0 LINE",
"520 0 LINE",
"215 0 LINE",
"196 3 LINE",
"177 8 LINE",
"158 14 LINE",
"139 22 LINE",
"121 33 LINE",
"104 45 LINE",
"89 60 LINE",
"74 75 LINE",
"62 92 LINE",
"51 110 LINE",
"43 129 LINE",
"36 148 LINE",
"32 167 LINE",
"29 186 LINE",
"28 204 LINE",
"28 409 LINE",
"29 510 LINE",
"32 528 LINE",
"36 548 LINE",
"43 567 LINE",
"51 585 LINE",
"62 603 LINE",
"74 620 LINE",
"89 636 LINE",
"104 650 LINE",
"121 663 LINE",
"139 673 LINE",
"158 682 LINE",
"177 688 LINE",
"196 693 LINE",
"215 695 LINE",
"520 696 LINE",
"538 695 LINE",
"558 693 LINE",
"577 688 LINE",
"596 682 LINE",
"614 673 LINE",
"632 663 LINE",
"649 650 LINE",
"665 636 LINE",
"679 620 LINE",
"692 603 LINE",
"702 585 LINE",
"711 567 LINE",
"717 548 LINE",
"722 528 LINE",
"724 510 LINE",
"725 491 LINE"
);
}
);
width = 755;
}
);
unicode = 0051;
},
{
glyphname = R;
layers = (
{
layerId = "18784422-F192-4997-B360-A1CB97F2F6DC";
paths = (
{
nodes = (
"641 533 LINE",
"644 514 LINE",
"645 496 LINE",
"644 473 LINE",
"639 448 LINE",
"632 424 LINE",
"621 401 LINE",
"608 378 LINE",
"591 357 LINE",
"571 339 LINE",
"550 323 LINE",
"727 4 LINE",
"481 4 LINE",
"479 8 LINE",
"399 148 LINE",
"399 4 LINE",
"71 4 LINE",
"30 4 LINE",
"30 701 LINE",
"440 701 LINE",
"459 700 LINE",
"477 697 LINE",
"496 693 LINE",
"515 687 LINE",
"534 678 LINE",
"552 668 LINE",
"569 655 LINE",
"585 641 LINE",
"599 625 LINE",
"611 608 LINE",
"622 590 LINE",
"630 572 LINE",
"637 552 LINE"
);
},
{
nodes = (
"522 496 LINE",
"521 503 LINE",
"520 511 LINE",
"519 518 LINE",
"516 526 LINE",
"513 533 LINE",
"508 541 LINE",
"503 548 LINE",
"498 554 LINE",
"491 560 LINE",
"485 565 LINE",
"478 569 LINE",
"470 572 LINE",
"463 575 LINE",
"455 577 LINE",
"447 577 LINE",
"440 578 LINE",
"399 578 LINE",
"399 414 LINE",
"440 414 LINE",
"447 414 LINE",
"455 416 LINE",
"463 417 LINE",
"470 420 LINE",
"478 423 LINE",
"485 428 LINE",
"491 432 LINE",
"498 438 LINE",
"503 444 LINE",
"508 451 LINE",
"513 458 LINE",
"516 466 LINE",
"519 473 LINE",
"520 481 LINE",
"521 489 LINE"
);
}
);
width = 739;
}
);
unicode = 0052;
},
{
glyphname = S;
layers = (
{
layerId = "18784422-F192-4997-B360-A1CB97F2F6DC";
paths = (
{
nodes = (
"720 351 LINE",
"722 340 LINE",
"722 329 LINE",
"722 206 LINE",
"721 187 LINE",
"719 168 LINE",
"714 149 LINE",
"708 130 LINE",
"699 112 LINE",
"689 94 LINE",
"677 77 LINE",
"662 61 LINE",
"647 47 LINE",
"630 34 LINE",
"611 24 LINE",
"593 15 LINE",
"574 9 LINE",
"555 4 LINE",
"536 2 LINE",
"517 1 LINE",
"212 2 LINE",
"193 4 LINE",
"174 9 LINE",
"155 15 LINE",
"136 24 LINE",
"119 34 LINE",
"101 47 LINE",
"86 61 LINE",
"72 77 LINE",
"59 94 LINE",
"49 112 LINE",
"40 130 LINE",
"34 149 LINE",
"29 168 LINE",
"27 187 LINE",
"26 206 LINE",
"26 288 LINE",
"394 288 LINE",
"394 124 LINE",
"525 124 LINE",
"532 125 LINE",
"540 127 LINE",
"548 130 LINE",
"555 133 LINE",
"562 137 LINE",
"569 142 LINE",
"575 148 LINE",
"581 154 LINE",
"586 161 LINE",
"590 168 LINE",
"593 176 LINE",
"596 183 LINE",
"598 191 LINE",
"599 198 LINE",
"599 206 LINE",
"599 292 LINE",
"598 295 LINE",
"598 299 LINE",
"596 303 LINE",
"595 307 LINE",
"593 310 LINE",
"590 313 LINE",
"587 317 LINE",
"584 320 LINE",
"581 322 LINE",
"577 324 LINE",
"573 326 LINE",
"570 327 LINE",
"566 328 LINE",
"562 328 LINE",
"558 329 LINE",
"149 329 LINE",
"138 329 LINE",
"126 331 LINE",
"115 333 LINE",
"103 337 LINE",
"92 342 LINE",
"82 349 LINE",
"71 356 LINE",
"62 365 LINE",
"53 374 LINE",
"46 384 LINE",
"39 395 LINE",
"34 406 LINE",
"31 418 LINE",
"28 429 LINE",
"26 441 LINE",
"26 452 LINE",
"27 511 LINE",
"29 530 LINE",
"34 549 LINE",
"40 568 LINE",
"49 587 LINE",
"59 605 LINE",
"72 622 LINE",
"86 637 LINE",
"101 652 LINE",
"119 664 LINE",
"136 674 LINE",
"155 683 LINE",
"174 689 LINE",
"193 694 LINE",
"212 697 LINE",
"517 697 LINE",
"536 697 LINE",
"555 694 LINE",
"574 689 LINE",
"593 683 LINE",
"611 674 LINE",
"630 664 LINE",
"647 652 LINE",
"662 637 LINE",
"677 622 LINE",
"689 605 LINE",
"699 587 LINE",
"708 568 LINE",
"714 549 LINE",
"719 530 LINE",
"721 511 LINE",
"722 493 LINE",
"599 493 LINE",
"599 500 LINE",
"598 507 LINE",
"596 515 LINE",
"593 523 LINE",
"590 530 LINE",
"586 537 LINE",
"581 544 LINE",
"575 550 LINE",
"569 556 LINE",
"562 561 LINE",
"555 565 LINE",
"548 569 LINE",
"540 571 LINE",
"532 573 LINE",
"525 574 LINE",
"394 574 LINE",
"394 452 LINE",
"599 452 LINE",
"610 451 LINE",
"622 449 LINE",
"633 447 LINE",
"645 443 LINE",
"656 438 LINE",
"667 431 LINE",
"677 424 LINE",
"686 416 LINE",
"695 406 LINE",
"702 396 LINE",
"708 385 LINE",
"714 374 LINE",
"718 363 LINE"
);
}
);
width = 750;
}
);
unicode = 0053;
},
{
glyphname = T;
layers = (
{
layerId = "18784422-F192-4997-B360-A1CB97F2F6DC";
paths = (
{
nodes = (
"680 698 LINE",
"680 575 LINE",
"516 575 LINE",
"516 1 LINE",
"188 1 LINE",
"188 575 LINE",
"25 575 LINE",
"25 657 LINE",
"25 698 LINE"
);
}
);
width = 699;
}
);
unicode = 0054;
},
{
glyphname = U;
layers = (
{
layerId = "18784422-F192-4997-B360-A1CB97F2F6DC";
paths = (
{
nodes = (
"731 698 LINE",
"731 329 LINE",
"731 187 LINE",
"728 168 LINE",
"724 149 LINE",
"717 130 LINE",
"709 112 LINE",
"698 94 LINE",
"686 77 LINE",
"671 61 LINE",
"656 47 LINE",
"639 34 LINE",
"621 24 LINE",
"602 15 LINE",
"583 9 LINE",
"564 4 LINE",
"545 2 LINE",
"240 1 LINE",
"221 2 LINE",
"203 4 LINE",
"184 9 LINE",
"165 15 LINE",
"146 24 LINE",
"128 34 LINE",
"111 47 LINE",
"95 61 LINE",
"81 77 LINE",
"68 94 LINE",
"58 112 LINE",
"49 130 LINE",
"43 149 LINE",
"39 168 LINE",
"36 187 LINE",
"35 493 LINE",
"35 698 LINE",
"240 698 LINE",
"404 698 LINE",
"404 124 LINE",
"527 124 LINE",
"534 124 LINE",
"542 125 LINE",
"549 127 LINE",
"557 130 LINE",
"564 133 LINE",
"572 137 LINE",
"578 142 LINE",
"584 148 LINE",
"590 154 LINE",
"595 161 LINE",
"600 168 LINE",
"603 176 LINE",
"605 183 LINE",
"607 191 LINE",
"608 198 LINE",
"609 698 LINE"
);
}
);
width = 761;
}
);
unicode = 0055;
},
{
glyphname = V;
layers = (
{
layerId = "18784422-F192-4997-B360-A1CB97F2F6DC";
paths = (
{
nodes = (
"472 411 LINE",
"536 192 LINE",
"614 411 LINE",
"643 493 LINE",
"715 698 LINE",
"838 698 LINE",
"592 2 LINE",
"264 2 LINE",
"60 582 LINE",
"19 698 LINE",
"387 698 LINE",
"448 493 LINE"
);
}
);
width = 850;
}
);
unicode = 0056;
},
{
glyphname = W;
layers = (
{
layerId = "18784422-F192-4997-B360-A1CB97F2F6DC";
paths = (
{
nodes = (
"908 411 LINE",
"973 191 LINE",
"1050 411 LINE",
"1079 493 LINE",
"1152 698 LINE",
"1275 698 LINE",
"1029 1 LINE",
"701 1 LINE",
"640 175 LINE",
"578 1 LINE",
"250 1 LINE",
"5 698 LINE",
"373 698 LINE",
"433 493 LINE",
"458 411 LINE",
"522 191 LINE",
"600 411 LINE",
"629 493 LINE",
"701 698 LINE",
"824 698 LINE",
"884 493 LINE"
);
}
);
width = 1282;
}
);
unicode = 0057;
},
{
glyphname = X;
layers = (
{
layerId = "18784422-F192-4997-B360-A1CB97F2F6DC";
paths = (
{
nodes = (
"469 296 LINE",
"711 2 LINE",
"629 2 LINE",
"588 2 LINE",
"417 210 LINE",
"293 2 LINE",
"18 2 LINE",
"254 409 LINE",
"15 699 LINE",
"138 699 LINE",
"305 496 LINE",
"422 699 LINE",
"710 699 LINE"
);
}
);
width = 727;
}
);
unicode = 0058;
},
{
glyphname = Y;
layers = (
{
layerId = "18784422-F192-4997-B360-A1CB97F2F6DC";
paths = (
{
nodes = (
"304 490 LINE",
"470 698 LINE",
"744 698 LINE",
"533 404 LINE",
"533 2 LINE",
"252 2 LINE",
"252 404 LINE",
"10 698 LINE",
"92 698 LINE",
"133 698 LINE"
);
}
);
width = 753;
}
);
unicode = 0059;
},
{
glyphname = Z;
layers = (
{
layerId = "18784422-F192-4997-B360-A1CB97F2F6DC";
paths = (
{
nodes = (
"711 129 LINE",
"711 7 LINE",
"15 7 LINE",
"15 129 LINE",
"383 580 LINE",
"15 580 LINE",
"15 703 LINE",
"711 703 LINE",
"711 580 LINE",
"383 129 LINE"
);
}
);
width = 731;
}
);
unicode = 005A;
},
{
glyphname = nine;
layers = (
{
layerId = "18784422-F192-4997-B360-A1CB97F2F6DC";
paths = (
{
nodes = (
"351 456 LINE",
"351 415 LINE",
"597 415 LINE",
"597 497 LINE",
"597 504 LINE",
"596 511 LINE",
"594 519 LINE",
"591 527 LINE",
"588 534 LINE",
"584 541 LINE",
"578 548 LINE",
"573 555 LINE",
"567 560 LINE",
"560 565 LINE",
"553 569 LINE",
"545 573 LINE",
"538 575 LINE",
"530 577 LINE",
"523 578 LINE",
"351 578 LINE",
"351 497 LINE"
);
},
{
nodes = (
"23 251 LINE",
"351 251 LINE",
"351 210 LINE",
"351 128 LINE",
"523 128 LINE",
"530 129 LINE",
"538 131 LINE",
"545 134 LINE",
"553 137 LINE",
"560 141 LINE",
"567 146 LINE",
"573 152 LINE",
"578 158 LINE",
"584 165 LINE",
"588 172 LINE",
"591 180 LINE",
"594 187 LINE",
"596 195 LINE",
"597 202 LINE",
"597 292 LINE",
"351 292 LINE",
"146 292 LINE",
"135 292 LINE",
"124 294 LINE",
"112 297 LINE",
"101 300 LINE",
"90 305 LINE",
"79 312 LINE",
"69 319 LINE",
"59 328 LINE",
"51 337 LINE",
"44 348 LINE",
"37 358 LINE",
"32 370 LINE",
"28 381 LINE",
"25 392 LINE",
"24 404 LINE",
"23 415 LINE",
"23 497 LINE",
"24 515 LINE",
"27 534 LINE",
"31 553 LINE",
"38 572 LINE",
"46 591 LINE",
"57 609 LINE",
"69 626 LINE",
"84 641 LINE",
"99 656 LINE",
"116 668 LINE",
"134 678 LINE",
"153 687 LINE",
"172 694 LINE",
"191 698 LINE",
"210 701 LINE",
"228 702 LINE",
"534 701 LINE",
"552 698 LINE",
"571 694 LINE",
"590 687 LINE",
"609 678 LINE",
"627 668 LINE",
"644 656 LINE",
"660 641 LINE",
"674 626 LINE",
"687 609 LINE",
"697 591 LINE",
"705 572 LINE",
"712 553 LINE",
"716 534 LINE",
"719 515 LINE",
"720 497 LINE",
"720 333 LINE",
"720 292 LINE",
"720 210 LINE",
"719 191 LINE",
"716 172 LINE",
"712 153 LINE",
"705 134 LINE",
"697 116 LINE",
"687 98 LINE",
"674 81 LINE",
"660 65 LINE",
"644 51 LINE",
"627 38 LINE",
"609 28 LINE",
"590 19 LINE",
"571 13 LINE",
"552 8 LINE",
"534 6 LINE",
"228 5 LINE",
"210 6 LINE",
"191 8 LINE",
"172 13 LINE",
"153 19 LINE",
"134 28 LINE",
"116 38 LINE",
"99 51 LINE",
"84 65 LINE",
"69 81 LINE",
"57 98 LINE",
"46 116 LINE",
"38 134 LINE",
"31 153 LINE",
"27 172 LINE",
"24 191 LINE",
"23 210 LINE"
);
}
);
width = 742;
}
);
unicode = 0039;
},
{
glyphname = eight;
layers = (
{
layerId = "18784422-F192-4997-B360-A1CB97F2F6DC";
paths = (
{
nodes = (
"216 127 LINE",
"223 127 LINE",
"346 127 LINE",
"346 290 LINE",
"222 290 LINE",
"216 289 LINE",
"208 288 LINE",
"200 286 LINE",
"193 284 LINE",
"185 281 LINE",
"178 276 LINE",
"171 271 LINE",
"165 266 LINE",
"159 259 LINE",
"154 253 LINE",
"150 245 LINE",
"147 238 LINE",
"144 230 LINE",
"142 223 LINE",
"141 215 LINE",
"141 208 LINE",
"141 201 LINE",
"142 194 LINE",
"144 186 LINE",
"147 179 LINE",
"150 171 LINE",
"154 164 LINE",
"159 157 LINE",
"165 151 LINE",
"171 145 LINE",
"178 140 LINE",
"185 136 LINE",
"193 133 LINE",
"200 130 LINE",
"208 128 LINE"
);
},
{
nodes = (
"141 496 LINE",
"141 486 LINE",
"141 486 LINE",
"143 479 LINE",
"144 472 LINE",
"147 465 LINE",
"151 457 LINE",
"155 450 LINE",
"160 443 LINE",
"165 437 LINE",
"172 432 LINE",
"179 427 LINE",
"186 422 LINE",
"194 419 LINE",
"201 416 LINE",
"209 415 LINE",
"215 414 LINE",
"217 414 LINE",
"225 414 LINE",
"231 414 LINE",
"346 414 LINE",
"346 455 LINE",
"346 498 LINE",
"346 577 LINE",
"223 577 LINE",
"216 577 LINE",
"208 576 LINE",
"200 574 LINE",
"193 572 LINE",
"185 568 LINE",
"178 564 LINE",
"171 559 LINE",
"165 554 LINE",
"159 547 LINE",
"154 540 LINE",
"150 533 LINE",
"147 526 LINE",
"144 518 LINE",
"142 511 LINE",
"141 503 LINE"
);
},
{
nodes = (
"208 701 LINE",
"224 700 LINE",
"510 700 LINE",
"527 700 LINE",
"545 697 LINE",
"563 693 LINE",
"581 687 LINE",
"599 679 LINE",
"616 669 LINE",
"632 657 LINE",
"647 644 LINE",
"660 629 LINE",
"672 613 LINE",
"682 596 LINE",
"690 578 LINE",
"696 560 LINE",
"700 542 LINE",
"703 524 LINE",
"703 507 LINE",
"703 468 LINE",
"703 458 LINE",
"701 447 LINE",
"699 436 LINE",
"695 425 LINE",
"691 415 LINE",
"685 405 LINE",
"677 395 LINE",
"669 386 LINE",
"660 378 LINE",
"651 371 LINE",
"641 365 LINE",
"630 360 LINE",
"619 357 LINE",
"608 354 LINE",
"598 353 LINE",
"587 352 LINE",
"598 352 LINE",
"608 350 LINE",
"619 348 LINE",
"630 344 LINE",
"641 339 LINE",
"651 333 LINE",
"660 326 LINE",
"669 318 LINE",
"677 309 LINE",
"685 300 LINE",
"691 289 LINE",
"695 279 LINE",
"699 268 LINE",
"701 257 LINE",
"703 246 LINE",
"703 236 LINE",
"703 197 LINE",
"703 180 LINE",
"700 162 LINE",
"696 144 LINE",
"690 126 LINE",
"682 108 LINE",
"672 91 LINE",
"660 75 LINE",
"647 60 LINE",
"632 47 LINE",
"616 35 LINE",
"599 25 LINE",
"581 17 LINE",
"563 11 LINE",
"545 7 LINE",
"527 5 LINE",
"510 4 LINE",
"223 4 LINE",
"223 4 LINE",
"211 4 LINE",
"194 5 LINE",
"176 7 LINE",
"158 12 LINE",
"140 18 LINE",
"123 26 LINE",
"106 36 LINE",
"89 47 LINE",
"75 61 LINE",
"61 76 LINE",
"49 92 LINE",
"40 109 LINE",
"32 127 LINE",
"25 144 LINE",
"21 163 LINE",
"19 180 LINE",
"18 198 LINE",
"18 236 LINE",
"18 247 LINE",
"20 258 LINE",
"22 268 LINE",
"26 279 LINE",
"31 290 LINE",
"37 300 LINE",
"44 310 LINE",
"52 319 LINE",
"61 327 LINE",
"71 334 LINE",
"81 340 LINE",
"91 344 LINE",
"102 348 LINE",
"113 351 LINE",
"124 352 LINE",
"134 353 LINE",
"124 353 LINE",
"113 355 LINE",
"102 357 LINE",
"91 361 LINE",
"81 366 LINE",
"71 372 LINE",
"61 379 LINE",
"52 387 LINE",
"44 396 LINE",
"37 405 LINE",
"31 415 LINE",
"26 426 LINE",
"22 437 LINE",
"20 448 LINE",
"18 458 LINE",
"18 469 LINE",
"18 507 LINE",
"19 525 LINE",
"21 543 LINE",
"25 561 LINE",
"32 579 LINE",
"40 596 LINE",
"49 613 LINE",
"61 629 LINE",
"75 644 LINE",
"89 658 LINE",
"106 669 LINE",
"123 679 LINE",
"140 687 LINE",
"158 694 LINE",
"176 698 LINE",
"194 700 LINE"
);
}
);
width = 722;
}
);
unicode = 0038;
},
{
glyphname = seven;
layers = (
{
layerId = "18784422-F192-4997-B360-A1CB97F2F6DC";
paths = (
{
nodes = (
"762 698 LINE",
"434 2 LINE",
"65 2 LINE",
"369 575 LINE",
"24 575 LINE",
"24 698 LINE",
"434 698 LINE"
);
}
);
width = 781;
}
);
unicode = 0037;
},
{
glyphname = six;
layers = (
{
layerId = "18784422-F192-4997-B360-A1CB97F2F6DC";
paths = (
{
nodes = (
"710 533 LINE",
"712 514 LINE",
"713 496 LINE",
"590 496 LINE",
"590 503 LINE",
"589 511 LINE",
"587 518 LINE",
"584 526 LINE",
"581 533 LINE",
"577 541 LINE",
"572 548 LINE",
"566 554 LINE",
"560 559 LINE",
"553 565 LINE",
"546 569 LINE",
"538 572 LINE",
"531 575 LINE",
"523 577 LINE",
"515 577 LINE",
"385 578 LINE",
"385 455 LINE",
"590 455 LINE",
"601 455 LINE",
"613 453 LINE",
"624 450 LINE",
"635 446 LINE",
"647 441 LINE",
"657 435 LINE",
"667 428 LINE",
"677 419 LINE",
"685 409 LINE",
"693 399 LINE",
"699 389 LINE",
"704 377 LINE",
"708 366 LINE",
"711 355 LINE",
"712 343 LINE",
"713 332 LINE",
"713 209 LINE",
"712 191 LINE",
"710 172 LINE",
"705 153 LINE",
"699 134 LINE",
"690 115 LINE",
"680 97 LINE",
"667 80 LINE",
"653 64 LINE",
"637 50 LINE",
"620 38 LINE",
"602 27 LINE",
"583 19 LINE",
"564 12 LINE",
"545 8 LINE",
"526 5 LINE",
"508 4 LINE",
"203 5 LINE",
"184 8 LINE",
"165 12 LINE",
"146 19 LINE",
"127 27 LINE",
"109 38 LINE",
"92 50 LINE",
"77 64 LINE",
"62 80 LINE",
"50 97 LINE",
"39 115 LINE",
"31 134 LINE",
"24 153 LINE",
"20 172 LINE",
"17 191 LINE",
"16 209 LINE",
"16 291 LINE",
"16 414 LINE",
"17 514 LINE",
"20 533 LINE",
"24 552 LINE",
"31 571 LINE",
"39 590 LINE",
"50 608 LINE",
"62 625 LINE",
"77 641 LINE",
"92 655 LINE",
"109 668 LINE",
"127 678 LINE",
"146 687 LINE",
"165 693 LINE",
"184 697 LINE",
"203 700 LINE",
"508 701 LINE",
"526 700 LINE",
"545 697 LINE",
"564 693 LINE",
"583 687 LINE",
"602 678 LINE",
"620 668 LINE",
"637 655 LINE",
"653 641 LINE",
"667 625 LINE",
"680 608 LINE",
"690 590 LINE",
"699 571 LINE",
"705 552 LINE"
);
},
{
nodes = (
"385 209 LINE",
"385 127 LINE",
"515 127 LINE",
"523 128 LINE",
"531 130 LINE",
"538 133 LINE",
"546 136 LINE",
"553 141 LINE",
"560 145 LINE",
"566 151 LINE",
"572 157 LINE",
"577 164 LINE",
"581 171 LINE",
"584 179 LINE",
"587 187 LINE",
"589 194 LINE",
"590 202 LINE",
"590 209 LINE",
"590 291 LINE",
"590 295 LINE",
"589 299 LINE",
"588 302 LINE",
"587 306 LINE",
"585 310 LINE",
"583 314 LINE",
"581 317 LINE",
"578 320 LINE",
"575 323 LINE",
"571 325 LINE",
"568 327 LINE",
"564 329 LINE",
"560 330 LINE",
"556 331 LINE",
"553 332 LINE",
"549 332 LINE",
"385 332 LINE",
"385 291 LINE",
"385 250 LINE"
);
}
);
width = 743;
}
);
unicode = 0036;
},
{
glyphname = five;
layers = (
{
layerId = "18784422-F192-4997-B360-A1CB97F2F6DC";
paths = (
{
nodes = (
"28 190 LINE",
"27 208 LINE",
"27 249 LINE",
"395 249 LINE",
"395 208 LINE",
"395 126 LINE",
"526 126 LINE",
"533 127 LINE",
"541 129 LINE",
"549 132 LINE",
"556 135 LINE",
"563 140 LINE",
"570 144 LINE",
"577 150 LINE",
"582 156 LINE",
"587 163 LINE",
"591 170 LINE",
"594 178 LINE",
"597 186 LINE",
"599 193 LINE",
"600 201 LINE",
"600 208 LINE",
"600 290 LINE",
"600 294 LINE",
"600 297 LINE",
"599 301 LINE",
"597 305 LINE",
"596 309 LINE",
"594 312 LINE",
"591 316 LINE",
"588 319 LINE",
"585 322 LINE",
"582 324 LINE",
"578 326 LINE",
"574 328 LINE",
"571 329 LINE",
"567 330 LINE",
"563 331 LINE",
"559 331 LINE",
"150 331 LINE",
"27 331 LINE",
"27 413 LINE",
"27 454 LINE",
"27 495 LINE",
"27 700 LINE",
"232 700 LINE",
"363 700 LINE",
"508 700 LINE",
"508 699 LINE",
"518 700 LINE",
"723 700 LINE",
"723 577 LINE",
"518 577 LINE",
"395 577 LINE",
"395 454 LINE",
"600 454 LINE",
"611 453 LINE",
"623 452 LINE",
"634 449 LINE",
"646 445 LINE",
"657 440 LINE",
"668 434 LINE",
"678 426 LINE",
"687 418 LINE",
"696 408 LINE",
"703 398 LINE",
"710 388 LINE",
"715 376 LINE",
"719 365 LINE",
"721 354 LINE",
"723 342 LINE",
"723 331 LINE",
"723 208 LINE",
"722 190 LINE",
"720 171 LINE",
"715 152 LINE",
"709 133 LINE",
"700 114 LINE",
"690 96 LINE",
"678 79 LINE",
"663 63 LINE",
"648 49 LINE",
"631 37 LINE",
"612 26 LINE",
"594 18 LINE",
"575 11 LINE",
"556 7 LINE",
"537 4 LINE",
"518 3 LINE",
"213 4 LINE",
"194 7 LINE",
"175 11 LINE",
"156 18 LINE",
"138 26 LINE",
"120 37 LINE",
"102 49 LINE",
"87 63 LINE",
"73 79 LINE",
"60 96 LINE",
"50 114 LINE",
"41 133 LINE",
"35 152 LINE",
"30 171 LINE"
);
}
);
width = 744;
}
);
unicode = 0035;
},
{
glyphname = four;
layers = (
{
layerId = "18784422-F192-4997-B360-A1CB97F2F6DC";
paths = (
{
nodes = (
"695 411 LINE",
"695 287 LINE",
"636 287 LINE",
"636 1 LINE",
"308 1 LINE",
"308 123 LINE",
"308 287 LINE",
"31 287 LINE",
"31 410 LINE",
"185 570 LINE",
"185 570 LINE",
"308 697 LINE",
"636 697 LINE",
"636 574 LINE",
"636 411 LINE"
);
},
{
nodes = (
"308 411 LINE",
"308 533 LINE",
"199 411 LINE"
);
}
);
width = 724;
}
);
unicode = 0034;
},
{
glyphname = three;
layers = (
{
layerId = "18784422-F192-4997-B360-A1CB97F2F6DC";
paths = (
{
nodes = (
"23 550 LINE",
"29 569 LINE",
"37 588 LINE",
"48 606 LINE",
"60 623 LINE",
"75 639 LINE",
"90 653 LINE",
"107 666 LINE",
"125 676 LINE",
"144 685 LINE",
"163 691 LINE",
"182 695 LINE",
"201 698 LINE",
"219 699 LINE",
"506 699 LINE",
"523 698 LINE",
"541 696 LINE",
"559 691 LINE",
"577 685 LINE",
"595 677 LINE",
"612 667 LINE",
"628 656 LINE",
"643 642 LINE",
"656 627 LINE",
"668 611 LINE",
"678 594 LINE",
"686 576 LINE",
"692 559 LINE",
"696 540 LINE",
"699 523 LINE",
"700 505 LINE",
"700 467 LINE",
"699 456 LINE",
"697 446 LINE",
"695 435 LINE",
"692 424 LINE",
"686 413 LINE",
"681 403 LINE",
"674 393 LINE",
"666 385 LINE",
"657 376 LINE",
"647 369 LINE",
"637 364 LINE",
"626 359 LINE",
"615 355 LINE",
"605 353 LINE",
"594 351 LINE",
"583 350 LINE",
"594 350 LINE",
"605 349 LINE",
"615 346 LINE",
"626 342 LINE",
"637 338 LINE",
"647 332 LINE",
"657 325 LINE",
"666 317 LINE",
"674 308 LINE",
"681 298 LINE",
"686 288 LINE",
"692 277 LINE",
"695 267 LINE",
"697 255 LINE",
"699 245 LINE",
"700 235 LINE",
"700 196 LINE",
"699 179 LINE",
"696 160 LINE",
"692 143 LINE",
"686 125 LINE",
"678 107 LINE",
"668 90 LINE",
"656 74 LINE",
"643 59 LINE",
"628 46 LINE",
"612 34 LINE",
"595 24 LINE",
"577 16 LINE",
"559 10 LINE",
"541 6 LINE",
"523 3 LINE",
"506 2 LINE",
"219 2 LINE",
"201 3 LINE",
"182 6 LINE",
"163 10 LINE",
"144 17 LINE",
"125 25 LINE",
"107 36 LINE",
"90 48 LINE",
"75 62 LINE",
"60 78 LINE",
"48 95 LINE",
"37 113 LINE",
"29 132 LINE",
"23 151 LINE",
"18 170 LINE",
"15 189 LINE",
"14 207 LINE",
"14 248 LINE",
"137 248 LINE",
"137 207 LINE",
"138 200 LINE",
"139 192 LINE",
"141 185 LINE",
"143 177 LINE",
"146 169 LINE",
"151 162 LINE",
"156 155 LINE",
"161 149 LINE",
"168 143 LINE",
"175 139 LINE",
"182 134 LINE",
"189 131 LINE",
"197 128 LINE",
"204 126 LINE",
"212 125 LINE",
"219 125 LINE",
"342 125 LINE",
"342 289 LINE",
"260 289 LINE",
"260 413 LINE",
"342 413 LINE",
"342 453 LINE",
"342 576 LINE",
"219 576 LINE",
"212 575 LINE",
"204 575 LINE",
"197 573 LINE",
"189 570 LINE",
"182 567 LINE",
"175 563 LINE",
"168 557 LINE",
"161 552 LINE",
"156 546 LINE",
"151 539 LINE",
"146 531 LINE",
"143 524 LINE",
"141 516 LINE",
"139 509 LINE",
"138 501 LINE",
"137 494 LINE",
"137 453 LINE",
"14 453 LINE",
"14 494 LINE",
"15 512 LINE",
"18 531 LINE"
);
}
);
width = 722;
}
);
unicode = 0033;
},
{
glyphname = two;
layers = (
{
layerId = "18784422-F192-4997-B360-A1CB97F2F6DC";
paths = (
{
nodes = (
"28 550 LINE",
"34 569 LINE",
"43 588 LINE",
"53 606 LINE",
"66 623 LINE",
"80 638 LINE",
"96 653 LINE",
"113 665 LINE",
"131 675 LINE",
"150 684 LINE",
"169 690 LINE",
"188 695 LINE",
"207 698 LINE",
"225 698 LINE",
"530 698 LINE",
"549 695 LINE",
"568 690 LINE",
"587 684 LINE",
"606 675 LINE",
"624 665 LINE",
"641 653 LINE",
"657 638 LINE",
"671 623 LINE",
"683 606 LINE",
"694 588 LINE",
"702 569 LINE",
"709 550 LINE",
"713 531 LINE",
"716 512 LINE",
"717 411 LINE",
"717 370 LINE",
"716 359 LINE",
"714 348 LINE",
"712 337 LINE",
"708 325 LINE",
"703 314 LINE",
"696 303 LINE",
"689 293 LINE",
"681 284 LINE",
"671 275 LINE",
"661 268 LINE",
"650 261 LINE",
"639 256 LINE",
"628 252 LINE",
"616 250 LINE",
"605 248 LINE",
"594 248 LINE",
"184 248 LINE",
"180 247 LINE",
"177 247 LINE",
"173 246 LINE",
"169 245 LINE",
"165 243 LINE",
"162 241 LINE",
"158 239 LINE",
"155 236 LINE",
"152 232 LINE",
"150 229 LINE",
"148 225 LINE",
"146 222 LINE",
"145 218 LINE",
"144 214 LINE",
"143 210 LINE",
"143 207 LINE",
"143 166 LINE",
"143 162 LINE",
"144 158 LINE",
"145 154 LINE",
"146 151 LINE",
"148 147 LINE",
"150 143 LINE",
"152 140 LINE",
"155 137 LINE",
"158 134 LINE",
"162 132 LINE",
"165 129 LINE",
"169 128 LINE",
"173 126 LINE",
"177 125 LINE",
"180 125 LINE",
"184 125 LINE",
"348 125 LINE",
"717 125 LINE",
"717 2 LINE",
"20 2 LINE",
"20 248 LINE",
"21 259 LINE",
"22 270 LINE",
"25 282 LINE",
"29 293 LINE",
"34 304 LINE",
"40 315 LINE",
"48 325 LINE",
"56 335 LINE",
"66 343 LINE",
"76 351 LINE",
"87 357 LINE",
"98 362 LINE",
"109 366 LINE",
"121 369 LINE",
"132 370 LINE",
"143 370 LINE",
"348 370 LINE",
"348 453 LINE",
"348 575 LINE",
"218 575 LINE",
"210 574 LINE",
"203 572 LINE",
"195 570 LINE",
"187 566 LINE",
"180 562 LINE",
"173 557 LINE",
"167 552 LINE",
"162 545 LINE",
"156 538 LINE",
"152 531 LINE",
"149 524 LINE",
"146 516 LINE",
"144 508 LINE",
"143 501 LINE",
"143 494 LINE",
"143 453 LINE",
"20 453 LINE",
"20 494 LINE",
"21 512 LINE",
"23 531 LINE"
);
}
);
width = 734;
}
);
unicode = 0032;
},
{
glyphname = one;
layers = (
{
layerId = "18784422-F192-4997-B360-A1CB97F2F6DC";
paths = (
{
nodes = (
"143 697 LINE",
"471 697 LINE",
"471 574 LINE",
"471 410 LINE",
"471 1 LINE",
"266 1 LINE",
"143 1 LINE",
"143 124 LINE",
"143 493 LINE",
"20 493 LINE",
"20 574 LINE"
);
}
);
width = 499;
}
);
unicode = 0031;
},
{
glyphname = zero;
layers = (
{
layerId = "18784422-F192-4997-B360-A1CB97F2F6DC";
paths = (
{
nodes = (
"600 467 LINE",
"395 124 LINE",
"525 124 LINE",
"533 125 LINE",
"540 127 LINE",
"548 129 LINE",
"555 133 LINE",
"563 137 LINE",
"570 142 LINE",
"576 148 LINE",
"581 154 LINE",
"587 161 LINE",
"591 168 LINE",
"594 176 LINE",
"597 183 LINE",
"598 191 LINE",
"599 198 LINE"
);
},
{
nodes = (
"574 689 LINE",
"593 683 LINE",
"612 674 LINE",
"630 664 LINE",
"647 651 LINE",
"663 637 LINE",
"677 621 LINE",
"689 605 LINE",
"700 587 LINE",
"708 568 LINE",
"715 549 LINE",
"719 529 LINE",
"722 511 LINE",
"723 493 LINE",
"722 187 LINE",
"719 168 LINE",
"715 149 LINE",
"708 130 LINE",
"700 111 LINE",
"689 94 LINE",
"677 77 LINE",
"663 61 LINE",
"647 47 LINE",
"630 34 LINE",
"612 23 LINE",
"593 15 LINE",
"574 9 LINE",
"555 4 LINE",
"536 2 LINE",
"518 1 LINE",
"213 2 LINE",
"194 4 LINE",
"175 9 LINE",
"156 15 LINE",
"137 23 LINE",
"119 34 LINE",
"102 47 LINE",
"86 61 LINE",
"72 77 LINE",
"60 94 LINE",
"49 111 LINE",
"41 130 LINE",
"34 149 LINE",
"30 168 LINE",
"27 187 LINE",
"26 206 LINE",
"26 410 LINE",
"27 511 LINE",
"30 529 LINE",
"34 549 LINE",
"41 568 LINE",
"49 587 LINE",
"60 605 LINE",
"72 621 LINE",
"86 637 LINE",
"102 651 LINE",
"119 664 LINE",
"137 674 LINE",
"156 683 LINE",
"175 689 LINE",
"194 694 LINE",
"213 697 LINE",
"518 697 LINE",
"536 697 LINE",
"555 694 LINE"
);
},
{
nodes = (
"589 534 LINE",
"583 543 LINE",
"575 551 LINE",
"567 558 LINE",
"557 564 LINE",
"548 569 LINE",
"537 572 LINE",
"527 574 LINE",
"395 574 LINE",
"395 203 LINE"
);
}
);
width = 751;
}
);
unicode = 0030;
},
{
glyphname = E;
layers = (
{
layerId = "18784422-F192-4997-B360-A1CB97F2F6DC";
paths = (
{
nodes = (
"349 413 LINE",
"554 413 LINE",
"554 331 LINE",
"349 331 LINE",
"349 126 LINE",
"595 126 LINE",
"595 3 LINE",
"349 3 LINE",
"22 3 LINE",
"22 576 LINE",
"22 658 LINE",
"22 699 LINE",
"349 699 LINE",
"595 699 LINE",
"595 576 LINE",
"349 576 LINE"
);
}
);
width = 616;
}
);
unicode = 0045;
},
{
glyphname = a;
layers = (
{
layerId = "18784422-F192-4997-B360-A1CB97F2F6DC";
paths = (
{
nodes = (
"409 205 LINE",
"214 205 LINE",
"141 0 LINE",
"18 0 LINE",
"264 696 LINE",
"592 696 LINE",
"838 0 LINE",
"469 0 LINE"
);
},
{
nodes = (
"385 287 LINE",
"320 506 LINE",
"243 287 LINE"
);
}
);
width = 844;
}
);
unicode = 0061;
},
{
glyphname = c;
layers = (
{
layerId = "18784422-F192-4997-B360-A1CB97F2F6DC";
paths = (
{
nodes = (
"505 696 LINE",
"523 696 LINE",
"542 693 LINE",
"561 688 LINE",
"580 682 LINE",
"598 673 LINE",
"616 663 LINE",
"634 651 LINE",
"649 636 LINE",
"664 621 LINE",
"676 604 LINE",
"686 586 LINE",
"695 567 LINE",
"701 548 LINE",
"706 529 LINE",
"708 510 LINE",
"709 492 LINE",
"586 492 LINE",
"586 499 LINE",
"585 506 LINE",
"583 514 LINE",
"581 522 LINE",
"577 529 LINE",
"573 536 LINE",
"568 543 LINE",
"562 550 LINE",
"556 555 LINE",
"549 560 LINE",
"542 564 LINE",
"535 568 LINE",
"527 570 LINE",
"519 572 LINE",
"512 573 LINE",
"381 573 LINE",
"381 123 LINE",
"512 123 LINE",
"519 124 LINE",
"527 126 LINE",
"535 129 LINE",
"542 132 LINE",
"549 136 LINE",
"556 141 LINE",
"562 147 LINE",
"568 153 LINE",
"573 160 LINE",
"577 167 LINE",
"581 175 LINE",
"583 182 LINE",
"585 190 LINE",
"586 197 LINE",
"586 205 LINE",
"709 205 LINE",
"708 186 LINE",
"706 167 LINE",
"701 148 LINE",
"695 129 LINE",
"686 111 LINE",
"676 93 LINE",
"664 76 LINE",
"649 60 LINE",
"634 46 LINE",
"616 33 LINE",
"598 23 LINE",
"580 14 LINE",
"561 8 LINE",
"542 3 LINE",
"523 1 LINE",
"505 0 LINE",
"199 1 LINE",
"180 3 LINE",
"161 8 LINE",
"142 14 LINE",
"123 23 LINE",
"106 33 LINE",
"88 46 LINE",
"73 60 LINE",
"59 76 LINE",
"46 93 LINE",
"36 111 LINE",
"27 129 LINE",
"21 148 LINE",
"16 167 LINE",
"14 186 LINE",
"13 205 LINE",
"13 410 LINE",
"13 492 LINE",
"14 510 LINE",
"16 529 LINE",
"21 548 LINE",
"27 567 LINE",
"36 586 LINE",
"46 604 LINE",
"59 621 LINE",
"73 636 LINE",
"88 651 LINE",
"106 663 LINE",
"123 673 LINE",
"142 682 LINE",
"161 688 LINE",
"180 693 LINE",
"199 696 LINE"
);
}
);
width = 723;
}
);
unicode = 0063;
},
{
glyphname = d;
layers = (
{
layerId = "18784422-F192-4997-B360-A1CB97F2F6DC";
paths = (
{
nodes = (
"712 495 LINE",
"712 413 LINE",
"712 208 LINE",
"711 189 LINE",
"709 170 LINE",
"704 151 LINE",
"698 132 LINE",
"689 114 LINE",
"679 96 LINE",
"666 79 LINE",
"652 63 LINE",
"636 49 LINE",
"619 36 LINE",
"601 26 LINE",
"583 17 LINE",
"564 11 LINE",
"545 6 LINE",
"526 4 LINE",
"507 3 LINE",
"221 3 LINE",
"16 3 LINE",
"16 208 LINE",
"16 331 LINE",
"16 576 LINE",
"16 700 LINE",
"384 700 LINE",
"507 700 LINE",
"526 699 LINE",
"545 696 LINE",
"564 692 LINE",
"583 685 LINE",
"601 676 LINE",
"619 666 LINE",
"636 654 LINE",
"652 639 LINE",
"666 624 LINE",
"679 607 LINE",
"689 589 LINE",
"698 570 LINE",
"704 551 LINE",
"709 532 LINE",
"711 513 LINE"
);
},
{
nodes = (
"589 208 LINE",
"589 495 LINE",
"589 502 LINE",
"588 509 LINE",
"586 517 LINE",
"583 525 LINE",
"580 532 LINE",
"576 539 LINE",
"571 546 LINE",
"565 553 LINE",
"559 558 LINE",
"552 563 LINE",
"545 567 LINE",
"538 571 LINE",
"530 573 LINE",
"522 575 LINE",
"515 576 LINE",
"507 576 LINE",
"343 576 LINE",
"343 126 LINE",
"507 126 LINE",
"515 126 LINE",
"522 127 LINE",
"530 129 LINE",
"538 132 LINE",
"545 135 LINE",
"552 139 LINE",
"559 144 LINE",
"565 150 LINE",
"571 156 LINE",
"576 163 LINE",
"580 170 LINE",
"583 178 LINE",
"586 185 LINE",
"588 193 LINE",
"589 200 LINE"
);
}
);
width = 726;
}
);
unicode = 0064;
},
{
glyphname = e;
layers = (
{
layerId = "18784422-F192-4997-B360-A1CB97F2F6DC";
paths = (
{
nodes = (
"349 413 LINE",
"554 413 LINE",
"554 331 LINE",
"349 331 LINE",
"349 126 LINE",
"595 126 LINE",
"595 3 LINE",
"349 3 LINE",
"22 3 LINE",
"22 576 LINE",
"22 658 LINE",
"22 699 LINE",
"349 699 LINE",
"595 699 LINE",
"595 576 LINE",
"349 576 LINE"
);
}
);
width = 616;
}
);
unicode = 0065;
},
{
glyphname = f;
layers = (
{
layerId = "18784422-F192-4997-B360-A1CB97F2F6DC";
paths = (
{
nodes = (
"360 412 LINE",
"565 412 LINE",
"565 330 LINE",
"360 330 LINE",
"360 125 LINE",
"360 2 LINE",
"33 2 LINE",
"33 576 LINE",
"33 658 LINE",
"33 699 LINE",
"360 699 LINE",
"606 699 LINE",
"606 576 LINE",
"360 576 LINE"
);
}
);
width = 631;
}
);
unicode = 0066;
},
{
glyphname = g;
layers = (
{
layerId = "18784422-F192-4997-B360-A1CB97F2F6DC";
paths = (
{
nodes = (
"716 529 LINE",
"718 510 LINE",
"719 492 LINE",
"596 492 LINE",
"596 500 LINE",
"595 507 LINE",
"593 514 LINE",
"590 522 LINE",
"587 529 LINE",
"583 537 LINE",
"578 544 LINE",
"572 550 LINE",
"566 556 LINE",
"559 561 LINE",
"552 565 LINE",
"544 568 LINE",
"537 571 LINE",
"529 573 LINE",
"521 573 LINE",
"391 574 LINE",
"391 123 LINE",
"521 124 LINE",
"529 125 LINE",
"537 126 LINE",
"544 129 LINE",
"552 132 LINE",
"559 137 LINE",
"566 142 LINE",
"572 147 LINE",
"578 154 LINE",
"583 161 LINE",
"587 167 LINE",
"590 175 LINE",
"593 183 LINE",
"595 190 LINE",
"596 198 LINE",
"596 205 LINE",
"473 205 LINE",
"473 328 LINE",
"719 328 LINE",
"719 205 LINE",
"718 187 LINE",
"716 168 LINE",
"711 149 LINE",
"705 130 LINE",
"696 111 LINE",
"685 93 LINE",
"673 76 LINE",
"659 61 LINE",
"643 46 LINE",
"626 34 LINE",
"608 23 LINE",
"590 15 LINE",
"571 9 LINE",
"551 4 LINE",
"532 1 LINE",
"514 0 LINE",
"209 1 LINE",
"190 4 LINE",
"171 9 LINE",
"152 15 LINE",
"133 23 LINE",
"115 34 LINE",
"98 46 LINE",
"82 61 LINE",
"68 76 LINE",
"56 93 LINE",
"45 111 LINE",
"37 130 LINE",
"30 149 LINE",
"26 168 LINE",
"24 187 LINE",
"22 205 LINE",
"22 410 LINE",
"22 492 LINE",
"24 510 LINE",
"26 529 LINE",
"30 548 LINE",
"37 568 LINE",
"45 586 LINE",
"56 604 LINE",
"68 621 LINE",
"82 637 LINE",
"98 651 LINE",
"115 664 LINE",
"133 674 LINE",
"152 683 LINE",
"171 689 LINE",
"190 693 LINE",
"209 696 LINE",
"514 697 LINE",
"532 696 LINE",
"551 693 LINE",
"571 689 LINE",
"590 683 LINE",
"608 674 LINE",
"626 664 LINE",
"643 651 LINE",
"659 637 LINE",
"673 621 LINE",
"685 604 LINE",
"696 586 LINE",
"705 568 LINE",
"711 548 LINE"
);
}
);
width = 744;
}
);
unicode = 0067;
},
{
glyphname = h;
layers = (
{
layerId = "18784422-F192-4997-B360-A1CB97F2F6DC";
paths = (
{
nodes = (
"636 410 LINE",
"636 697 LINE",
"759 697 LINE",
"759 0 LINE",
"636 0 LINE",
"636 232 LINE",
"636 328 LINE",
"390 328 LINE",
"390 0 LINE",
"21 0 LINE",
"21 472 LINE",
"21 697 LINE",
"390 697 LINE",
"390 464 LINE",
"390 410 LINE"
);
}
);
width = 779;
}
);
unicode = 0068;
},
{
glyphname = i;
layers = (
{
layerId = "18784422-F192-4997-B360-A1CB97F2F6DC";
paths = (
{
nodes = (
"356 574 LINE",
"356 1 LINE",
"29 1 LINE",
"29 574 LINE",
"29 656 LINE",
"29 697 LINE",
"356 697 LINE"
);
}
);
width = 383;
}
);
unicode = 0069;
},
{
glyphname = j;
layers = (
{
layerId = "18784422-F192-4997-B360-A1CB97F2F6DC";
paths = (
{
nodes = (
"469 574 LINE",
"469 205 LINE",
"468 187 LINE",
"465 167 LINE",
"461 148 LINE",
"454 129 LINE",
"446 111 LINE",
"435 93 LINE",
"423 76 LINE",
"409 60 LINE",
"393 46 LINE",
"376 33 LINE",
"358 23 LINE",
"339 14 LINE",
"320 8 LINE",
"301 3 LINE",
"282 1 LINE",
"264 0 LINE",
"141 0 LINE",
"18 0 LINE",
"18 123 LINE",
"141 123 LINE",
"141 574 LINE",
"141 656 LINE",
"141 697 LINE",
"469 697 LINE"
);
}
);
width = 491;
}
);
unicode = 006A;
},
{
glyphname = k;
layers = (
{
layerId = "18784422-F192-4997-B360-A1CB97F2F6DC";
paths = (
{
nodes = (
"483 378 LINE",
"757 1 LINE",
"470 1 LINE",
"468 4 LINE",
"388 110 LINE",
"388 1 LINE",
"19 1 LINE",
"19 698 LINE",
"388 698 LINE",
"388 411 LINE",
"421 457 LINE",
"593 698 LINE",
"716 698 LINE"
);
}
);
width = 778;
}
);
unicode = 006B;
},
{
glyphname = l;
layers = (
{
layerId = "18784422-F192-4997-B360-A1CB97F2F6DC";
paths = (
{
nodes = (
"599 124 LINE",
"599 1 LINE",
"190 1 LINE",
"26 1 LINE",
"26 411 LINE",
"26 657 LINE",
"26 698 LINE",
"354 698 LINE",
"354 411 LINE",
"354 124 LINE"
);
}
);
width = 626;
}
);
unicode = 006C;
},
{
glyphname = m;
layers = (
{
layerId = "18784422-F192-4997-B360-A1CB97F2F6DC";
paths = (
{
nodes = (
"1012 697 LINE",
"1012 1 LINE",
"807 1 LINE",
"684 1 LINE",
"684 233 LINE",
"684 279 LINE",
"602 1 LINE",
"479 1 LINE",
"397 279 LINE",
"397 1 LINE",
"29 1 LINE",
"29 697 LINE",
"397 697 LINE",
"541 210 LINE",
"684 697 LINE",
"807 697 LINE"
);
}
);
width = 1043;
}
);
unicode = 006D;
},
{
glyphname = n;
layers = (
{
layerId = "18784422-F192-4997-B360-A1CB97F2F6DC";
paths = (
{
nodes = (
"395 697 LINE",
"641 232 LINE",
"641 472 LINE",
"641 697 LINE",
"763 697 LINE",
"763 0 LINE",
"641 0 LINE",
"395 464 LINE",
"395 0 LINE",
"26 0 LINE",
"26 472 LINE",
"26 697 LINE"
);
}
);
width = 794;
}
);
unicode = 006E;
},
{
glyphname = o;
layers = (
{
layerId = "18784422-F192-4997-B360-A1CB97F2F6DC";
paths = (
{
nodes = (
"572 689 LINE",
"591 683 LINE",
"610 674 LINE",
"628 664 LINE",
"645 652 LINE",
"661 637 LINE",
"675 622 LINE",
"687 605 LINE",
"698 587 LINE",
"706 568 LINE",
"713 549 LINE",
"717 530 LINE",
"720 511 LINE",
"721 493 LINE",
"720 187 LINE",
"717 168 LINE",
"713 149 LINE",
"706 130 LINE",
"698 112 LINE",
"687 94 LINE",
"675 77 LINE",
"661 61 LINE",
"645 47 LINE",
"628 34 LINE",
"610 24 LINE",
"591 15 LINE",
"572 9 LINE",
"553 4 LINE",
"534 2 LINE",
"516 1 LINE",
"211 2 LINE",
"192 4 LINE",
"173 9 LINE",
"154 15 LINE",
"135 24 LINE",
"117 34 LINE",
"100 47 LINE",
"84 61 LINE",
"70 77 LINE",
"57 94 LINE",
"47 112 LINE",
"39 130 LINE",
"32 149 LINE",
"28 168 LINE",
"25 187 LINE",
"24 206 LINE",
"24 410 LINE",
"25 511 LINE",
"28 530 LINE",
"32 549 LINE",
"39 568 LINE",
"47 587 LINE",
"57 605 LINE",
"70 622 LINE",
"84 637 LINE",
"100 652 LINE",
"117 664 LINE",
"135 674 LINE",
"154 683 LINE",
"173 689 LINE",
"192 694 LINE",
"211 697 LINE",
"516 697 LINE",
"534 697 LINE",
"553 694 LINE"
);
},
{
nodes = (
"598 493 LINE",
"597 500 LINE",
"596 507 LINE",
"595 515 LINE",
"592 523 LINE",
"589 530 LINE",
"584 537 LINE",
"580 544 LINE",
"574 551 LINE",
"567 556 LINE",
"560 561 LINE",
"553 565 LINE",
"546 569 LINE",
"538 571 LINE",
"531 573 LINE",
"523 574 LINE",
"393 574 LINE",
"393 124 LINE",
"523 124 LINE",
"531 125 LINE",
"538 127 LINE",
"546 129 LINE",
"553 133 LINE",
"560 137 LINE",
"567 142 LINE",
"574 148 LINE",
"580 154 LINE",
"584 161 LINE",
"589 168 LINE",
"592 176 LINE",
"595 183 LINE",
"596 191 LINE",
"597 198 LINE"
);
}
);
width = 744;
}
);
unicode = 006F;
},
{
glyphname = p;
layers = (
{
layerId = "18784422-F192-4997-B360-A1CB97F2F6DC";
paths = (
{
nodes = (
"468 293 LINE",
"449 291 LINE",
"431 290 LINE",
"390 290 LINE",
"390 167 LINE",
"390 3 LINE",
"226 3 LINE",
"62 3 LINE",
"21 3 LINE",
"21 699 LINE",
"431 699 LINE",
"449 699 LINE",
"468 696 LINE",
"487 691 LINE",
"506 685 LINE",
"525 676 LINE",
"543 666 LINE",
"560 654 LINE",
"576 639 LINE",
"590 624 LINE",
"603 607 LINE",
"613 589 LINE",
"622 570 LINE",
"628 551 LINE",
"632 532 LINE",
"635 513 LINE",
"636 495 LINE",
"635 471 LINE",
"632 457 LINE",
"632 455 LINE",
"628 440 LINE",
"628 438 LINE",
"626 434 LINE",
"622 421 LINE",
"622 419 LINE",
"613 401 LINE",
"608 393 LINE",
"600 378 LINE",
"596 374 LINE",
"584 358 LINE",
"580 354 LINE",
"564 339 LINE",
"560 336 LINE",
"541 322 LINE",
"525 312 LINE",
"506 304 LINE",
"487 297 LINE"
);
},
{
nodes = (
"513 495 LINE",
"512 502 LINE",
"512 509 LINE",
"510 517 LINE",
"507 525 LINE",
"504 532 LINE",
"500 539 LINE",
"495 546 LINE",
"489 553 LINE",
"483 558 LINE",
"476 563 LINE",
"468 567 LINE",
"461 571 LINE",
"454 573 LINE",
"446 575 LINE",
"439 576 LINE",
"431 576 LINE",
"390 576 LINE",
"390 412 LINE",
"431 412 LINE",
"439 413 LINE",
"446 414 LINE",
"454 416 LINE",
"461 418 LINE",
"468 422 LINE",
"476 426 LINE",
"483 431 LINE",
"489 437 LINE",
"495 443 LINE",
"500 450 LINE",
"504 457 LINE",
"507 464 LINE",
"510 472 LINE",
"512 480 LINE",
"512 487 LINE"
);
}
);
width = 660;
}
);
unicode = 0070;
},
{
glyphname = q;
layers = (
{
layerId = "18784422-F192-4997-B360-A1CB97F2F6DC";
paths = (
{
nodes = (
"747 0 LINE",
"602 0 LINE",
"578 23 LINE",
"438 163 LINE",
"520 246 LINE",
"582 184 LINE"
);
},
{
nodes = (
"723 180 LINE",
"719 156 LINE",
"710 127 LINE",
"694 102 LINE",
"602 204 LINE",
"602 499 LINE",
"601 506 LINE",
"599 514 LINE",
"596 521 LINE",
"593 529 LINE",
"589 536 LINE",
"583 543 LINE",
"578 549 LINE",
"572 555 LINE",
"565 560 LINE",
"558 564 LINE",
"550 568 LINE",
"542 570 LINE",
"535 572 LINE",
"527 573 LINE",
"397 573 LINE",
"397 122 LINE",
"438 122 LINE",
"558 3 LINE",
"538 0 LINE",
"520 0 LINE",
"215 0 LINE",
"196 3 LINE",
"177 8 LINE",
"158 14 LINE",
"139 22 LINE",
"121 33 LINE",
"104 45 LINE",
"89 60 LINE",
"74 75 LINE",
"62 92 LINE",
"51 110 LINE",
"43 129 LINE",
"36 148 LINE",
"32 167 LINE",
"29 186 LINE",
"28 204 LINE",
"28 409 LINE",
"29 510 LINE",
"32 528 LINE",
"36 548 LINE",
"43 567 LINE",
"51 585 LINE",
"62 603 LINE",
"74 620 LINE",
"89 636 LINE",
"104 650 LINE",
"121 663 LINE",
"139 673 LINE",
"158 682 LINE",
"177 688 LINE",
"196 693 LINE",
"215 695 LINE",
"520 696 LINE",
"538 695 LINE",
"558 693 LINE",
"577 688 LINE",
"596 682 LINE",
"614 673 LINE",
"632 663 LINE",
"649 650 LINE",
"665 636 LINE",
"679 620 LINE",
"692 603 LINE",
"702 585 LINE",
"711 567 LINE",
"717 548 LINE",
"722 528 LINE",
"724 510 LINE",
"725 491 LINE"
);
}
);
width = 755;
}
);
unicode = 0071;
},
{
glyphname = r;
layers = (
{
layerId = "18784422-F192-4997-B360-A1CB97F2F6DC";
paths = (
{
nodes = (
"641 533 LINE",
"644 514 LINE",
"645 496 LINE",
"644 473 LINE",
"639 448 LINE",
"632 424 LINE",
"621 401 LINE",
"608 378 LINE",
"591 357 LINE",
"571 339 LINE",
"550 323 LINE",
"727 4 LINE",
"481 4 LINE",
"479 8 LINE",
"399 148 LINE",
"399 4 LINE",
"71 4 LINE",
"30 4 LINE",
"30 701 LINE",
"440 701 LINE",
"459 700 LINE",
"477 697 LINE",
"496 693 LINE",
"515 687 LINE",
"534 678 LINE",
"552 668 LINE",
"569 655 LINE",
"585 641 LINE",
"599 625 LINE",
"611 608 LINE",
"622 590 LINE",
"630 572 LINE",
"637 552 LINE"
);
},
{
nodes = (
"522 496 LINE",
"521 503 LINE",
"520 511 LINE",
"519 518 LINE",
"516 526 LINE",
"513 533 LINE",
"508 541 LINE",
"503 548 LINE",
"498 554 LINE",
"491 560 LINE",
"485 565 LINE",
"478 569 LINE",
"470 572 LINE",
"463 575 LINE",
"455 577 LINE",
"447 577 LINE",
"440 578 LINE",
"399 578 LINE",
"399 414 LINE",
"440 414 LINE",
"447 414 LINE",
"455 416 LINE",
"463 417 LINE",
"470 420 LINE",
"478 423 LINE",
"485 428 LINE",
"491 432 LINE",
"498 438 LINE",
"503 444 LINE",
"508 451 LINE",
"513 458 LINE",
"516 466 LINE",
"519 473 LINE",
"520 481 LINE",
"521 489 LINE"
);
}
);
width = 739;
}
);
unicode = 0072;
},
{
glyphname = s;
layers = (
{
layerId = "18784422-F192-4997-B360-A1CB97F2F6DC";
paths = (
{
nodes = (
"720 351 LINE",
"722 340 LINE",
"722 329 LINE",
"722 206 LINE",
"721 187 LINE",
"719 168 LINE",
"714 149 LINE",
"708 130 LINE",
"699 112 LINE",
"689 94 LINE",
"677 77 LINE",
"662 61 LINE",
"647 47 LINE",
"630 34 LINE",
"611 24 LINE",
"593 15 LINE",
"574 9 LINE",
"555 4 LINE",
"536 2 LINE",
"517 1 LINE",
"212 2 LINE",
"193 4 LINE",
"174 9 LINE",
"155 15 LINE",
"136 24 LINE",
"119 34 LINE",
"101 47 LINE",
"86 61 LINE",
"72 77 LINE",
"59 94 LINE",
"49 112 LINE",
"40 130 LINE",
"34 149 LINE",
"29 168 LINE",
"27 187 LINE",
"26 206 LINE",
"26 288 LINE",
"394 288 LINE",
"394 124 LINE",
"525 124 LINE",
"532 125 LINE",
"540 127 LINE",
"548 130 LINE",
"555 133 LINE",
"562 137 LINE",
"569 142 LINE",
"575 148 LINE",
"581 154 LINE",
"586 161 LINE",
"590 168 LINE",
"593 176 LINE",
"596 183 LINE",
"598 191 LINE",
"599 198 LINE",
"599 206 LINE",
"599 292 LINE",
"598 295 LINE",
"598 299 LINE",
"596 303 LINE",
"595 307 LINE",
"593 310 LINE",
"590 313 LINE",
"587 317 LINE",
"584 320 LINE",
"581 322 LINE",
"577 324 LINE",
"573 326 LINE",
"570 327 LINE",
"566 328 LINE",
"562 328 LINE",
"558 329 LINE",
"149 329 LINE",
"138 329 LINE",
"126 331 LINE",
"115 333 LINE",
"103 337 LINE",
"92 342 LINE",
"82 349 LINE",
"71 356 LINE",
"62 365 LINE",
"53 374 LINE",
"46 384 LINE",
"39 395 LINE",
"34 406 LINE",
"31 418 LINE",
"28 429 LINE",
"26 441 LINE",
"26 452 LINE",
"27 511 LINE",
"29 530 LINE",
"34 549 LINE",
"40 568 LINE",
"49 587 LINE",
"59 605 LINE",
"72 622 LINE",
"86 637 LINE",
"101 652 LINE",
"119 664 LINE",
"136 674 LINE",
"155 683 LINE",
"174 689 LINE",
"193 694 LINE",
"212 697 LINE",
"517 697 LINE",
"536 697 LINE",
"555 694 LINE",
"574 689 LINE",
"593 683 LINE",
"611 674 LINE",
"630 664 LINE",
"647 652 LINE",
"662 637 LINE",
"677 622 LINE",
"689 605 LINE",
"699 587 LINE",
"708 568 LINE",
"714 549 LINE",
"719 530 LINE",
"721 511 LINE",
"722 493 LINE",
"599 493 LINE",
"599 500 LINE",
"598 507 LINE",
"596 515 LINE",
"593 523 LINE",
"590 530 LINE",
"586 537 LINE",
"581 544 LINE",
"575 550 LINE",
"569 556 LINE",
"562 561 LINE",
"555 565 LINE",
"548 569 LINE",
"540 571 LINE",
"532 573 LINE",
"525 574 LINE",
"394 574 LINE",
"394 452 LINE",
"599 452 LINE",
"610 451 LINE",
"622 449 LINE",
"633 447 LINE",
"645 443 LINE",
"656 438 LINE",
"667 431 LINE",
"677 424 LINE",
"686 416 LINE",
"695 406 LINE",
"702 396 LINE",
"708 385 LINE",
"714 374 LINE",
"718 363 LINE"
);
}
);
width = 750;
}
);
unicode = 0073;
},
{
glyphname = t;
layers = (
{
layerId = "18784422-F192-4997-B360-A1CB97F2F6DC";
paths = (
{
nodes = (
"680 698 LINE",
"680 575 LINE",
"516 575 LINE",
"516 1 LINE",
"188 1 LINE",
"188 575 LINE",
"25 575 LINE",
"25 657 LINE",
"25 698 LINE"
);
}
);
width = 699;
}
);
unicode = 0074;
},
{
glyphname = u;
layers = (
{
layerId = "18784422-F192-4997-B360-A1CB97F2F6DC";
paths = (
{
nodes = (
"731 698 LINE",
"731 329 LINE",
"731 187 LINE",
"728 168 LINE",
"724 149 LINE",
"717 130 LINE",
"709 112 LINE",
"698 94 LINE",
"686 77 LINE",
"671 61 LINE",
"656 47 LINE",
"639 34 LINE",
"621 24 LINE",
"602 15 LINE",
"583 9 LINE",
"564 4 LINE",
"545 2 LINE",
"240 1 LINE",
"221 2 LINE",
"203 4 LINE",
"184 9 LINE",
"165 15 LINE",
"146 24 LINE",
"128 34 LINE",
"111 47 LINE",
"95 61 LINE",
"81 77 LINE",
"68 94 LINE",
"58 112 LINE",
"49 130 LINE",
"43 149 LINE",
"39 168 LINE",
"36 187 LINE",
"35 493 LINE",
"35 698 LINE",
"240 698 LINE",
"404 698 LINE",
"404 124 LINE",
"527 124 LINE",
"534 124 LINE",
"542 125 LINE",
"549 127 LINE",
"557 130 LINE",
"564 133 LINE",
"572 137 LINE",
"578 142 LINE",
"584 148 LINE",
"590 154 LINE",
"595 161 LINE",
"600 168 LINE",
"603 176 LINE",
"605 183 LINE",
"607 191 LINE",
"608 198 LINE",
"609 698 LINE"
);
}
);
width = 761;
}
);
unicode = 0075;
},
{
glyphname = v;
layers = (
{
layerId = "18784422-F192-4997-B360-A1CB97F2F6DC";
paths = (
{
nodes = (
"472 411 LINE",
"536 192 LINE",
"614 411 LINE",
"643 493 LINE",
"715 698 LINE",
"838 698 LINE",
"592 2 LINE",
"264 2 LINE",
"60 582 LINE",
"19 698 LINE",
"387 698 LINE",
"448 493 LINE"
);
}
);
width = 850;
}
);
unicode = 0076;
},
{
glyphname = w;
layers = (
{
layerId = "18784422-F192-4997-B360-A1CB97F2F6DC";
paths = (
{
nodes = (
"908 411 LINE",
"973 191 LINE",
"1050 411 LINE",
"1079 493 LINE",
"1152 698 LINE",
"1275 698 LINE",
"1029 1 LINE",
"701 1 LINE",
"640 175 LINE",
"578 1 LINE",
"250 1 LINE",
"5 698 LINE",
"373 698 LINE",
"433 493 LINE",
"458 411 LINE",
"522 191 LINE",
"600 411 LINE",
"629 493 LINE",
"701 698 LINE",
"824 698 LINE",
"884 493 LINE"
);
}
);
width = 1282;
}
);
unicode = 0077;
},
{
glyphname = x;
layers = (
{
layerId = "18784422-F192-4997-B360-A1CB97F2F6DC";
paths = (
{
nodes = (
"469 296 LINE",
"711 2 LINE",
"629 2 LINE",
"588 2 LINE",
"417 210 LINE",
"293 2 LINE",
"18 2 LINE",
"254 409 LINE",
"15 699 LINE",
"138 699 LINE",
"305 496 LINE",
"422 699 LINE",
"710 699 LINE"
);
}
);
width = 727;
}
);
unicode = 0078;
},
{
glyphname = y;
layers = (
{
layerId = "18784422-F192-4997-B360-A1CB97F2F6DC";
paths = (
{
nodes = (
"304 490 LINE",
"470 698 LINE",
"744 698 LINE",
"533 404 LINE",
"533 2 LINE",
"252 2 LINE",
"252 404 LINE",
"10 698 LINE",
"92 698 LINE",
"133 698 LINE"
);
}
);
width = 753;
}
);
unicode = 0079;
},
{
glyphname = z;
layers = (
{
layerId = "18784422-F192-4997-B360-A1CB97F2F6DC";
paths = (
{
nodes = (
"711 129 LINE",
"711 7 LINE",
"15 7 LINE",
"15 129 LINE",
"383 580 LINE",
"15 580 LINE",
"15 703 LINE",
"711 703 LINE",
"711 580 LINE",
"383 129 LINE"
);
}
);
width = 731;
}
);
unicode = 007A;
},
{
glyphname = B;
layers = (
{
layerId = "18784422-F192-4997-B360-A1CB97F2F6DC";
paths = (
{
nodes = (
"430 330 LINE",
"422 330 LINE",
"382 330 LINE",
"382 166 LINE",
"422 166 LINE",
"430 167 LINE",
"437 168 LINE",
"445 170 LINE",
"453 172 LINE",
"460 175 LINE",
"467 180 LINE",
"474 185 LINE",
"480 191 LINE",
"486 197 LINE",
"491 204 LINE",
"495 211 LINE",
"498 218 LINE",
"501 226 LINE",
"503 233 LINE",
"504 241 LINE",
"504 248 LINE",
"504 256 LINE",
"503 263 LINE",
"501 271 LINE",
"498 278 LINE",
"495 286 LINE",
"491 293 LINE",
"486 300 LINE",
"480 306 LINE",
"474 312 LINE",
"467 317 LINE",
"460 321 LINE",
"453 325 LINE",
"445 327 LINE",
"437 329 LINE"
);
},
{
nodes = (
"430 413 LINE",
"437 414 LINE",
"445 415 LINE",
"453 418 LINE",
"460 421 LINE",
"467 426 LINE",
"474 431 LINE",
"480 436 LINE",
"486 443 LINE",
"491 449 LINE",
"495 457 LINE",
"498 464 LINE",
"501 472 LINE",
"503 479 LINE",
"504 487 LINE",
"504 494 LINE",
"504 502 LINE",
"503 509 LINE",
"501 517 LINE",
"498 524 LINE",
"495 532 LINE",
"491 539 LINE",
"486 546 LINE",
"480 552 LINE",
"474 558 LINE",
"467 563 LINE",
"460 567 LINE",
"453 570 LINE",
"445 573 LINE",
"437 575 LINE",
"430 576 LINE",
"422 576 LINE",
"382 576 LINE",
"382 412 LINE",
"422 412 LINE"
);
},
{
nodes = (
"660 310 LINE",
"665 289 LINE",
"668 248 LINE",
"667 226 LINE",
"664 204 LINE",
"659 181 LINE",
"651 158 LINE",
"641 136 LINE",
"628 114 LINE",
"613 93 LINE",
"596 74 LINE",
"577 58 LINE",
"557 42 LINE",
"535 30 LINE",
"513 20 LINE",
"490 12 LINE",
"467 7 LINE",
"445 4 LINE",
"422 3 LINE",
"54 3 LINE",
"13 3 LINE",
"13 699 LINE",
"422 699 LINE",
"441 698 LINE",
"460 695 LINE",
"479 691 LINE",
"498 685 LINE",
"516 676 LINE",
"534 666 LINE",
"552 653 LINE",
"567 639 LINE",
"581 623 LINE",
"594 606 LINE",
"604 588 LINE",
"613 570 LINE",
"619 551 LINE",
"624 531 LINE",
"626 513 LINE",
"627 494 LINE",
"626 473 LINE",
"623 452 LINE",
"617 430 LINE",
"609 409 LINE",
"623 391 LINE",
"635 372 LINE",
"646 351 LINE",
"654 330 LINE"
);
}
);
width = 686;
}
);
unicode = 0042;
},
{
glyphname = b;
layers = (
{
layerId = "18784422-F192-4997-B360-A1CB97F2F6DC";
paths = (
{
nodes = (
"430 330 LINE",
"422 330 LINE",
"382 330 LINE",
"382 166 LINE",
"422 166 LINE",
"430 167 LINE",
"437 168 LINE",
"445 170 LINE",
"453 172 LINE",
"460 175 LINE",
"467 180 LINE",
"474 185 LINE",
"480 191 LINE",
"486 197 LINE",
"491 204 LINE",
"495 211 LINE",
"498 218 LINE",
"501 226 LINE",
"503 233 LINE",
"504 241 LINE",
"504 248 LINE",
"504 256 LINE",
"503 263 LINE",
"501 271 LINE",
"498 278 LINE",
"495 286 LINE",
"491 293 LINE",
"486 300 LINE",
"480 306 LINE",
"474 312 LINE",
"467 317 LINE",
"460 321 LINE",
"453 325 LINE",
"445 327 LINE",
"437 329 LINE"
);
},
{
nodes = (
"430 413 LINE",
"437 414 LINE",
"445 415 LINE",
"453 418 LINE",
"460 421 LINE",
"467 426 LINE",
"474 431 LINE",
"480 436 LINE",
"486 443 LINE",
"491 449 LINE",
"495 457 LINE",
"498 464 LINE",
"501 472 LINE",
"503 479 LINE",
"504 487 LINE",
"504 494 LINE",
"504 502 LINE",
"503 509 LINE",
"501 517 LINE",
"498 524 LINE",
"495 532 LINE",
"491 539 LINE",
"486 546 LINE",
"480 552 LINE",
"474 558 LINE",
"467 563 LINE",
"460 567 LINE",
"453 570 LINE",
"445 573 LINE",
"437 575 LINE",
"430 576 LINE",
"422 576 LINE",
"382 576 LINE",
"382 412 LINE",
"422 412 LINE"
);
},
{
nodes = (
"660 310 LINE",
"665 289 LINE",
"668 248 LINE",
"667 226 LINE",
"664 204 LINE",
"659 181 LINE",
"651 158 LINE",
"641 136 LINE",
"628 114 LINE",
"613 93 LINE",
"596 74 LINE",
"577 58 LINE",
"557 42 LINE",
"535 30 LINE",
"513 20 LINE",
"490 12 LINE",
"467 7 LINE",
"445 4 LINE",
"422 3 LINE",
"54 3 LINE",
"13 3 LINE",
"13 699 LINE",
"422 699 LINE",
"441 698 LINE",
"460 695 LINE",
"479 691 LINE",
"498 685 LINE",
"516 676 LINE",
"534 666 LINE",
"552 653 LINE",
"567 639 LINE",
"581 623 LINE",
"594 606 LINE",
"604 588 LINE",
"613 570 LINE",
"619 551 LINE",
"624 531 LINE",
"626 513 LINE",
"627 494 LINE",
"626 473 LINE",
"623 452 LINE",
"617 430 LINE",
"609 409 LINE",
"623 391 LINE",
"635 372 LINE",
"646 351 LINE",
"654 330 LINE"
);
}
);
width = 686;
}
);
unicode = 0062;
},
{
glyphname = exclam;
layers = (
{
layerId = "18784422-F192-4997-B360-A1CB97F2F6DC";
paths = (
{
nodes = (
"355 119 LINE",
"355 -1 LINE",
"345 -1 LINE",
"151 -1 LINE",
"28 -1 LINE",
"28 119 LINE",
"28 121 LINE"
);
},
{
nodes = (
"355 407 LINE",
"355 178 LINE",
"28 178 LINE",
"28 570 LINE",
"28 652 LINE",
"28 693 LINE",
"355 693 LINE",
"355 570 LINE"
);
}
);
width = 384;
}
);
unicode = 0021;
},
{
glyphname = question;
layers = (
{
layerId = "18784422-F192-4997-B360-A1CB97F2F6DC";
paths = (
{
nodes = (
"523 126 LINE",
"523 3 LINE",
"229 3 LINE",
"229 126 LINE",
"344 126 LINE"
);
},
{
nodes = (
"387 371 LINE",
"387 452 LINE",
"387 575 LINE",
"344 575 LINE",
"214 574 LINE",
"206 573 LINE",
"199 571 LINE",
"191 569 LINE",
"184 565 LINE",
"177 561 LINE",
"170 556 LINE",
"163 551 LINE",
"158 545 LINE",
"153 538 LINE",
"149 530 LINE",
"145 523 LINE",
"143 515 LINE",
"141 508 LINE",
"140 500 LINE",
"140 493 LINE",
"140 452 LINE",
"17 452 LINE",
"17 493 LINE",
"18 511 LINE",
"20 530 LINE",
"25 549 LINE",
"31 568 LINE",
"40 587 LINE",
"50 605 LINE",
"63 621 LINE",
"77 637 LINE",
"93 651 LINE",
"110 664 LINE",
"127 674 LINE",
"146 683 LINE",
"165 689 LINE",
"184 694 LINE",
"203 696 LINE",
"221 697 LINE",
"525 696 LINE",
"544 694 LINE",
"563 689 LINE",
"582 683 LINE",
"601 674 LINE",
"618 664 LINE",
"635 651 LINE",
"651 637 LINE",
"665 621 LINE",
"678 605 LINE",
"688 587 LINE",
"697 568 LINE",
"703 549 LINE",
"707 530 LINE",
"710 511 LINE",
"711 411 LINE",
"711 371 LINE",
"710 360 LINE",
"709 348 LINE",
"706 337 LINE",
"702 325 LINE",
"697 314 LINE",
"691 304 LINE",
"684 293 LINE",
"675 284 LINE",
"666 275 LINE",
"655 268 LINE",
"645 262 LINE",
"633 257 LINE",
"622 253 LINE",
"611 250 LINE",
"599 249 LINE",
"588 248 LINE",
"523 248 LINE",
"523 185 LINE",
"229 185 LINE",
"229 248 LINE",
"229 259 LINE",
"231 270 LINE",
"234 282 LINE",
"237 293 LINE",
"242 304 LINE",
"249 315 LINE",
"256 325 LINE",
"265 335 LINE",
"274 343 LINE",
"284 351 LINE",
"295 357 LINE",
"306 362 LINE",
"317 366 LINE",
"329 369 LINE",
"340 370 LINE",
"351 371 LINE"
);
}
);
width = 729;
}
);
unicode = 003F;
},
{
glyphname = parenleft;
layers = (
{
layerId = "18784422-F192-4997-B360-A1CB97F2F6DC";
paths = (
{
nodes = (
"226 826 LINE",
"471 826 LINE",
"471 703 LINE",
"348 703 LINE",
"348 530 LINE",
"348 254 LINE",
"348 81 LINE",
"348 -10 LINE",
"471 -10 LINE",
"471 -133 LINE",
"348 -133 LINE",
"226 -133 LINE",
"207 -132 LINE",
"189 -129 LINE",
"170 -125 LINE",
"151 -118 LINE",
"132 -110 LINE",
"114 -99 LINE",
"97 -87 LINE",
"82 -73 LINE",
"67 -57 LINE",
"55 -40 LINE",
"45 -22 LINE",
"36 -4 LINE",
"30 15 LINE",
"25 34 LINE",
"23 53 LINE",
"22 71 LINE",
"22 163 LINE",
"22 215 LINE",
"22 530 LINE",
"22 582 LINE",
"22 622 LINE",
"23 640 LINE",
"25 659 LINE",
"30 678 LINE",
"36 697 LINE",
"45 715 LINE",
"55 733 LINE",
"67 750 LINE",
"82 766 LINE",
"97 780 LINE",
"114 792 LINE",
"132 803 LINE",
"151 811 LINE",
"170 818 LINE",
"189 822 LINE",
"207 825 LINE"
);
}
);
width = 483;
}
);
unicode = 0028;
},
{
glyphname = parenright;
layers = (
{
layerId = "18784422-F192-4997-B360-A1CB97F2F6DC";
paths = (
{
nodes = (
"13 832 LINE",
"258 832 LINE",
"276 831 LINE",
"295 828 LINE",
"314 824 LINE",
"333 817 LINE",
"352 809 LINE",
"369 798 LINE",
"386 786 LINE",
"402 772 LINE",
"416 756 LINE",
"429 739 LINE",
"439 721 LINE",
"447 703 LINE",
"454 684 LINE",
"458 665 LINE",
"461 646 LINE",
"462 628 LINE",
"462 588 LINE",
"462 536 LINE",
"462 221 LINE",
"462 169 LINE",
"462 77 LINE",
"461 59 LINE",
"458 40 LINE",
"454 21 LINE",
"447 2 LINE",
"439 -16 LINE",
"429 -34 LINE",
"416 -51 LINE",
"402 -67 LINE",
"386 -81 LINE",
"369 -93 LINE",
"352 -104 LINE",
"333 -112 LINE",
"314 -119 LINE",
"295 -123 LINE",
"276 -126 LINE",
"258 -127 LINE",
"135 -127 LINE",
"13 -127 LINE",
"13 -4 LINE",
"135 -4 LINE",
"135 87 LINE",
"135 260 LINE",
"135 536 LINE",
"135 709 LINE",
"13 709 LINE"
);
}
);
width = 494;
}
);
unicode = 0029;
},
{
glyphname = quotedbl;
layers = (
{
layerId = "18784422-F192-4997-B360-A1CB97F2F6DC";
paths = (
{
nodes = (
"149 696 LINE",
"255 696 LINE",
"255 573 LINE",
"66 458 LINE",
"7 511 LINE",
"89 573 LINE",
"34 573 LINE",
"34 696 LINE"
);
},
{
nodes = (
"513 696 LINE",
"513 573 LINE",
"319 458 LINE",
"251 511 LINE",
"342 573 LINE",
"287 573 LINE",
"287 696 LINE",
"402 696 LINE"
);
}
);
width = 534;
}
);
unicode = 0022;
},
{
glyphname = comma;
layers = (
{
layerId = "18784422-F192-4997-B360-A1CB97F2F6DC";
paths = (
{
nodes = (
"208 122 LINE",
"208 -1 LINE",
"46 -116 LINE",
"-13 -63 LINE",
"69 -1 LINE",
"14 -1 LINE",
"14 122 LINE",
"129 122 LINE"
);
}
);
width = 228;
}
);
unicode = 002C;
},
{
glyphname = quotesingle;
layers = (
{
layerId = "18784422-F192-4997-B360-A1CB97F2F6DC";
paths = (
{
nodes = (
"262 696 LINE",
"262 573 LINE",
"66 458 LINE",
"7 511 LINE",
"89 573 LINE",
"34 573 LINE",
"34 696 LINE",
"149 696 LINE"
);
}
);
width = 280;
}
);
unicode = 0027;
},
{
glyphname = period;
layers = (
{
layerId = "18784422-F192-4997-B360-A1CB97F2F6DC";
paths = (
{
nodes = (
"209 128 LINE",
"209 5 LINE",
"17 5 LINE",
"17 128 LINE",
"132 128 LINE"
);
}
);
width = 227;
}
);
unicode = 002E;
},
{
glyphname = colon;
layers = (
{
layerId = "18784422-F192-4997-B360-A1CB97F2F6DC";
paths = (
{
nodes = (
"195 128 LINE",
"195 5 LINE",
"21 5 LINE",
"21 128 LINE",
"136 128 LINE"
);
},
{
nodes = (
"196 457 LINE",
"196 334 LINE",
"22 334 LINE",
"22 457 LINE",
"137 457 LINE"
);
}
);
width = 212;
}
);
unicode = 003A;
},
{
glyphname = semicolon;
layers = (
{
layerId = "18784422-F192-4997-B360-A1CB97F2F6DC";
paths = (
{
nodes = (
"212 457 LINE",
"212 334 LINE",
"22 334 LINE",
"22 457 LINE",
"137 457 LINE"
);
},
{
nodes = (
"129 122 LINE",
"14 122 LINE",
"14 -1 LINE",
"69 -1 LINE",
"-13 -63 LINE",
"46 -116 LINE",
"204 -1 LINE",
"204 122 LINE"
);
}
);
width = 238;
}
);
unicode = 003B;
},
{
glyphname = equal;
layers = (
{
layerId = "18784422-F192-4997-B360-A1CB97F2F6DC";
paths = (
{
nodes = (
"381 392 LINE",
"381 298 LINE",
"46 298 LINE",
"46 392 LINE",
"161 392 LINE"
);
},
{
nodes = (
"382 251 LINE",
"382 157 LINE",
"47 157 LINE",
"47 251 LINE",
"162 251 LINE"
);
}
);
width = 410;
}
);
unicode = 003D;
},
{
glyphname = slash;
layers = (
{
layerId = "18784422-F192-4997-B360-A1CB97F2F6DC";
paths = (
{
nodes = (
"749 699 LINE",
"341 3 LINE",
"15 3 LINE",
"422 699 LINE"
);
}
);
width = 760;
}
);
unicode = 002F;
},
{
glyphname = hyphen;
layers = (
{
layerId = "18784422-F192-4997-B360-A1CB97F2F6DC";
paths = (
{
nodes = (
"317 377 LINE",
"317 298 LINE",
"23 298 LINE",
"23 377 LINE",
"138 377 LINE"
);
}
);
width = 331;
}
);
unicode = 002D;
},
{
glyphname = underscore;
layers = (
{
layerId = "18784422-F192-4997-B360-A1CB97F2F6DC";
paths = (
{
nodes = (
"394 -2 LINE",
"394 -100 LINE",
"20 -99 LINE",
"20 -1 LINE",
"135 -1 LINE"
);
}
);
width = 413;
}
);
unicode = 005F;
},
{
glyphname = C;
layers = (
{
layerId = "18784422-F192-4997-B360-A1CB97F2F6DC";
paths = (
{
nodes = (
"505 696 LINE",
"523 696 LINE",
"542 693 LINE",
"561 688 LINE",
"580 682 LINE",
"598 673 LINE",
"616 663 LINE",
"634 651 LINE",
"649 636 LINE",
"664 621 LINE",
"676 604 LINE",
"686 586 LINE",
"695 567 LINE",
"701 548 LINE",
"706 529 LINE",
"708 510 LINE",
"709 492 LINE",
"586 492 LINE",
"586 499 LINE",
"585 506 LINE",
"583 514 LINE",
"581 522 LINE",
"577 529 LINE",
"573 536 LINE",
"568 543 LINE",
"562 550 LINE",
"556 555 LINE",
"549 560 LINE",
"542 564 LINE",
"535 568 LINE",
"527 570 LINE",
"519 572 LINE",
"512 573 LINE",
"381 573 LINE",
"381 123 LINE",
"512 123 LINE",
"519 124 LINE",
"527 126 LINE",
"535 129 LINE",
"542 132 LINE",
"549 136 LINE",
"556 141 LINE",
"562 147 LINE",
"568 153 LINE",
"573 160 LINE",
"577 167 LINE",
"581 175 LINE",
"583 182 LINE",
"585 190 LINE",
"586 197 LINE",
"586 205 LINE",
"709 205 LINE",
"708 186 LINE",
"706 167 LINE",
"701 148 LINE",
"695 129 LINE",
"686 111 LINE",
"676 93 LINE",
"664 76 LINE",
"649 60 LINE",
"634 46 LINE",
"616 33 LINE",
"598 23 LINE",
"580 14 LINE",
"561 8 LINE",
"542 3 LINE",
"523 1 LINE",
"505 0 LINE",
"199 1 LINE",
"180 3 LINE",
"161 8 LINE",
"142 14 LINE",
"123 23 LINE",
"106 33 LINE",
"88 46 LINE",
"73 60 LINE",
"59 76 LINE",
"46 93 LINE",
"36 111 LINE",
"27 129 LINE",
"21 148 LINE",
"16 167 LINE",
"14 186 LINE",
"13 205 LINE",
"13 410 LINE",
"13 492 LINE",
"14 510 LINE",
"16 529 LINE",
"21 548 LINE",
"27 567 LINE",
"36 586 LINE",
"46 604 LINE",
"59 621 LINE",
"73 636 LINE",
"88 651 LINE",
"106 663 LINE",
"123 673 LINE",
"142 682 LINE",
"161 688 LINE",
"180 693 LINE",
"199 696 LINE"
);
}
);
width = 723;
}
);
unicode = 0043;
},
{
glyphname = D;
layers = (
{
layerId = "18784422-F192-4997-B360-A1CB97F2F6DC";
paths = (
{
nodes = (
"712 495 LINE",
"712 413 LINE",
"712 208 LINE",
"711 189 LINE",
"709 170 LINE",
"704 151 LINE",
"698 132 LINE",
"689 114 LINE",
"679 96 LINE",
"666 79 LINE",
"652 63 LINE",
"636 49 LINE",
"619 36 LINE",
"601 26 LINE",
"583 17 LINE",
"564 11 LINE",
"545 6 LINE",
"526 4 LINE",
"507 3 LINE",
"221 3 LINE",
"16 3 LINE",
"16 208 LINE",
"16 331 LINE",
"16 576 LINE",
"16 700 LINE",
"384 700 LINE",
"507 700 LINE",
"526 699 LINE",
"545 696 LINE",
"564 692 LINE",
"583 685 LINE",
"601 676 LINE",
"619 666 LINE",
"636 654 LINE",
"652 639 LINE",
"666 624 LINE",
"679 607 LINE",
"689 589 LINE",
"698 570 LINE",
"704 551 LINE",
"709 532 LINE",
"711 513 LINE"
);
},
{
nodes = (
"589 208 LINE",
"589 495 LINE",
"589 502 LINE",
"588 509 LINE",
"586 517 LINE",
"583 525 LINE",
"580 532 LINE",
"576 539 LINE",
"571 546 LINE",
"565 553 LINE",
"559 558 LINE",
"552 563 LINE",
"545 567 LINE",
"538 571 LINE",
"530 573 LINE",
"522 575 LINE",
"515 576 LINE",
"507 576 LINE",
"343 576 LINE",
"343 126 LINE",
"507 126 LINE",
"515 126 LINE",
"522 127 LINE",
"530 129 LINE",
"538 132 LINE",
"545 135 LINE",
"552 139 LINE",
"559 144 LINE",
"565 150 LINE",
"571 156 LINE",
"576 163 LINE",
"580 170 LINE",
"583 178 LINE",
"586 185 LINE",
"588 193 LINE",
"589 200 LINE"
);
}
);
width = 726;
}
);
unicode = 0044;
},
{
glyphname = A;
layers = (
{
layerId = "18784422-F192-4997-B360-A1CB97F2F6DC";
paths = (
{
nodes = (
"409 205 LINE",
"214 205 LINE",
"141 0 LINE",
"18 0 LINE",
"264 696 LINE",
"592 696 LINE",
"838 0 LINE",
"469 0 LINE"
);
},
{
nodes = (
"385 287 LINE",
"320 506 LINE",
"243 287 LINE"
);
}
